<?xml version="1.0" encoding="UTF-8"?> <svg xmlns="http://www.w3.org/2000/svg" width="82" height="83" viewBox="0 0 82 83" fill="none"><g clip-path="url(#clip0_8159_3119)"><path d="M80.8594 41.5C80.8594 63.7902 63.0129 81.8576 40.9986 81.8576C18.9843 81.8576 1.14062 63.7902 1.14062 41.5C1.14062 19.2097 18.9871 1.14233 40.9986 1.14233C63.0101 1.14233 80.8594 19.2126 80.8594 41.5Z" stroke="white"></path><path d="M62.0933 41.4999C62.0933 53.2971 52.6498 62.859 40.9986 62.859C29.3475 62.859 19.904 53.2971 19.904 41.4999C19.904 29.7027 29.3475 20.1408 40.9986 20.1408C41.0183 20.1408 41.0352 20.1408 41.0549 20.1408V2.77393C41.0352 2.77393 41.0183 2.77393 40.9986 2.77393C19.8759 2.77108 2.74927 20.1124 2.74927 41.4999C2.74927 62.8875 19.873 80.2288 40.9986 80.2288C62.1242 80.2288 79.248 62.8904 79.248 41.4999C79.248 41.4487 79.248 41.3974 79.248 41.3462H62.0905C62.0905 41.3974 62.0933 41.4487 62.0933 41.4999Z" fill="white"></path><path d="M16.5799 20.1438L20.4664 23.4469L19.8589 24.1816L15.9724 20.8785L16.5799 20.1438Z" fill="black"></path><path d="M20.3568 21.3824C20.6268 21.6557 20.9671 21.9319 21.3073 21.5874C21.5632 21.3283 21.5576 20.9752 21.3073 20.7217C20.5649 19.97 19.0772 21.3738 18.0704 20.3516C17.4546 19.728 17.4855 18.9506 18.0957 18.3327C18.8354 17.5866 19.6031 17.786 20.2949 18.4893L19.6594 19.13C19.3753 18.8395 18.9816 18.5206 18.616 18.8908C18.4051 19.1044 18.4135 19.4033 18.6244 19.6169C19.26 20.2604 20.8208 18.8709 21.9148 19.9842C22.57 20.6477 22.5082 21.4535 21.8585 22.1113C21.0908 22.8887 20.3709 22.7577 19.634 22.0088C19.575 21.949 19.5159 21.8778 19.4625 21.8237L20.1262 21.1517L20.3512 21.3795L20.3568 21.3824Z" fill="black"></path><path d="M23.6329 16.0119C23.602 15.9721 23.8607 16.2768 24.1166 16.6128C24.4006 16.9858 24.6565 17.356 24.6284 17.3161C25.1993 18.2131 25.4215 19.0474 24.4681 19.7906C23.9225 20.2177 23.3545 20.3601 22.7442 19.9643C22.2689 19.6169 21.909 19.1584 21.5518 18.6886C20.7981 17.7005 19.9713 16.5245 21.2284 15.5421C22.193 14.7875 22.8905 15.1862 23.6357 16.0119H23.6329ZM24.0013 19.184C24.4681 18.8167 24.1672 18.307 23.8832 17.934L23.3882 17.2506L22.8483 16.5786C22.5755 16.2226 22.1199 15.7841 21.6756 16.1344C21.2115 16.496 21.5293 17.0143 21.7965 17.4015L22.3083 18.0963L22.8286 18.7569C23.1211 19.1072 23.5373 19.5485 23.9985 19.1869L24.0013 19.184Z" fill="black"></path><path d="M25.5481 14.9329C25.0926 14.0615 24.8507 13.1475 25.8716 12.5979C26.9036 12.0455 27.4717 12.7204 27.9751 13.5831C27.9554 13.5461 28.1382 13.8622 28.3238 14.2181C28.5066 14.5655 28.6697 14.9101 28.6501 14.8731C29.0916 15.8241 29.3953 16.6584 28.276 17.2593C27.6545 17.5924 26.9936 17.4842 26.6505 16.8293L27.4267 16.4136C27.5336 16.6186 27.7923 16.7524 28.0004 16.6385C28.2282 16.5161 28.2732 16.2854 28.2057 16.0519C28.096 15.7672 27.9498 15.4881 27.8064 15.2148C27.7389 15.5223 27.5898 15.7045 27.3142 15.8526C26.5015 16.2883 25.9053 15.6106 25.551 14.9329H25.5481ZM26.1387 14.0103C26.1865 14.1185 26.2456 14.2324 26.3046 14.3434C26.4031 14.5314 26.4987 14.7164 26.6196 14.9015C26.7687 15.1094 26.9711 15.1834 27.1933 15.0638C27.3114 15.0012 27.4014 14.9044 27.4127 14.762C27.4436 14.4744 27.2383 14.1868 27.1258 13.9277C26.9543 13.6287 26.6871 12.9994 26.24 13.2386C25.925 13.4066 25.9981 13.7426 26.1387 14.0103Z" fill="black"></path><path d="M29.1871 11.0546C30.0082 10.7272 30.5791 11.0774 30.9475 11.8519C31.1275 12.205 31.2737 12.5781 31.42 12.9511C31.5128 13.1874 31.6 13.4323 31.6843 13.6715C32.033 14.5685 32.1484 15.5224 31.0881 15.9466C30.0139 16.3738 29.4683 15.622 29.1111 14.7051C29.0155 14.4773 28.9199 14.2296 28.8271 13.9933C28.7315 13.7455 28.6359 13.5006 28.5459 13.2501C28.2393 12.3417 28.1409 11.4732 29.1899 11.0546H29.1871ZM30.1629 12.3332C30.0364 12.0285 29.8479 11.5586 29.4458 11.7181C29.0239 11.8861 29.2011 12.299 29.2911 12.6122L29.5498 13.2814L29.862 14.0815L30.1038 14.7051C30.222 14.9899 30.4048 15.4797 30.7985 15.3202C30.9672 15.2519 31.1388 15.0411 31.1022 14.8504C31.0825 14.7051 31.0263 14.5542 30.9728 14.4175L30.7113 13.7427L30.4019 12.9425L30.1657 12.3332H30.1629Z" fill="black"></path><path d="M32.607 9.9126C33.4619 9.68196 33.9878 10.092 34.269 10.9064C34.4096 11.2766 34.5137 11.6638 34.6149 12.0511C34.6796 12.296 34.7386 12.5494 34.7977 12.7971C35.0452 13.7283 35.0536 14.6907 33.9512 14.9897C32.8347 15.2944 32.3764 14.4828 32.1233 13.5318C32.0529 13.2954 31.9855 13.0363 31.9208 12.7914C31.8533 12.5323 31.7858 12.2817 31.7239 12.0198C31.5186 11.0829 31.5186 10.2087 32.607 9.9126ZM33.4366 11.2936C33.3438 10.9747 33.2088 10.4878 32.7926 10.6017C32.3567 10.7213 32.486 11.1513 32.5423 11.473L32.7251 12.1678L32.9444 12.9993L33.116 13.6457C33.2032 13.9447 33.3297 14.4487 33.7375 14.3376C33.9118 14.2892 34.1059 14.0984 34.0918 13.9048C34.0918 13.7596 34.0468 13.603 34.0103 13.4606L33.8247 12.7601L33.6053 11.9286L33.4366 11.2965V11.2936Z" fill="black"></path><path d="M37.6914 14.1584L36.8028 14.2951L36.2684 10.7215L35.1745 10.8895L35.0845 10.2915C35.7032 10.1975 36.2769 9.83873 36.3078 9.14963L36.9265 9.05566L37.6914 14.1612V14.1584Z" fill="black"></path><path d="M10.4968 49.6438C10.0356 49.7777 9.53224 49.9884 9.70098 50.575C9.82753 51.0163 10.2128 51.2242 10.6403 51.1018C11.9058 50.7344 11.2871 48.2315 13.0026 47.7332C14.0487 47.4285 14.8727 47.9325 15.1708 48.9861C15.5308 50.2589 14.8502 50.9907 13.6691 51.3324L13.3597 50.239C13.8462 50.0966 14.4284 49.8546 14.2512 49.2253C14.1471 48.8608 13.8181 48.6899 13.4581 48.7953C12.3782 49.1085 12.9351 51.6855 11.0677 52.2265C9.95408 52.5511 9.11603 51.9959 8.79825 50.8768C8.4214 49.5527 8.99791 48.8352 10.255 48.4678C10.3562 48.4394 10.4659 48.4166 10.5587 48.3881L10.8849 49.5328L10.4997 49.6438H10.4968Z" fill="black"></path><path d="M15.528 50.874L16.0792 52.0842L14.3159 53.9892L16.8779 53.8383L17.4206 55.0257L13.4047 55.0684L10.9609 56.2131L10.4631 55.1225L12.907 53.9778L15.5252 50.8769L15.528 50.874Z" fill="black"></path><path d="M14.3075 58.5196C13.9082 58.7872 13.492 59.1432 13.8238 59.65C14.0741 60.0316 14.5044 60.1142 14.8756 59.8664C15.9724 59.1289 14.6394 56.9335 16.1271 55.9341C17.0354 55.3247 17.9691 55.5553 18.5681 56.4665C19.2908 57.5685 18.8578 58.474 17.8341 59.1631L17.2126 58.2149C17.6344 57.933 18.1181 57.523 17.761 56.9762C17.5529 56.6602 17.1901 56.5975 16.8751 56.8082C15.9386 57.4375 17.2351 59.7212 15.6152 60.8118C14.6478 61.4611 13.686 61.1877 13.0477 60.2167C12.2968 59.0692 12.6314 58.2092 13.7226 57.4774C13.8098 57.4176 13.9082 57.3635 13.9898 57.3094L14.6394 58.3032L14.3047 58.5281L14.3075 58.5196Z" fill="black"></path><path d="M18.7621 58.9125L19.5439 58.2063L22.1424 61.1592L21.3606 61.8653L20.4607 60.8431L16.4982 64.4195L15.708 63.5226L19.6705 59.9461L18.7593 58.9125H18.7621Z" fill="black"></path><path d="M24.772 63.4173L24.0802 64.2374L22.5025 62.8734L21.5463 64.0067L23.0115 65.2739L22.3675 66.0398L20.9023 64.7727L19.7577 66.1281L21.3748 67.5262L20.683 68.3463L18.1716 66.1737L22.3 61.2788L24.772 63.4173Z" fill="black"></path><path d="M26.493 64.5762L25.1375 68.6168L27.9919 65.476L29.5218 66.3957L26.2792 71.9284L25.3118 71.3475L28.1972 66.4612L24.3079 70.7438L23.692 70.3737L25.534 64.8609L22.6936 69.7757L21.7122 69.1863L24.9547 63.6536L26.493 64.5762Z" fill="black"></path><path d="M31.7547 74.1124C30.9336 73.8732 30.343 73.241 30.4077 72.3412C30.4639 71.6322 30.6523 70.9346 30.8464 70.254C31.2485 68.836 31.7885 67.1218 33.6164 67.6514C34.9326 68.033 35.1491 68.9612 34.792 70.2255L33.6868 69.9038C33.7093 69.8554 33.7233 69.8041 33.7374 69.7529C33.8555 69.3371 33.8864 68.7135 33.3774 68.5626C32.874 68.4174 32.6153 68.7819 32.4522 69.2033C32.3341 69.5279 32.23 69.8554 32.14 70.1771C32.0163 70.61 31.8925 71.0513 31.7772 71.487C31.7013 71.749 31.6366 72.0166 31.6057 72.2814C31.5438 72.6943 31.6029 73.0617 32.0472 73.1898C32.4831 73.3179 32.7671 73.0218 32.9049 72.6317C32.9921 72.4181 33.0568 72.1903 33.1215 71.9597L34.2267 72.2814C33.8639 73.5628 33.2424 74.5395 31.7576 74.1067L31.7547 74.1124Z" fill="black"></path><path d="M39.0384 68.819L38.8978 69.8868L36.8421 69.6049L36.6452 71.0827L38.5547 71.3419L38.4226 72.3385L36.513 72.0765L36.2768 73.8448L38.386 74.1324L38.2454 75.2002L34.9719 74.7532L35.8212 68.3748L39.0441 68.8133L39.0384 68.819Z" fill="black"></path><path d="M41.578 68.8303C42.6663 68.8132 43.389 69.2432 43.4087 70.4505C43.42 71.114 43.2119 71.7063 42.5341 71.9142C42.9728 72.0224 43.3412 72.29 43.4115 72.7656C43.4622 73.2582 43.4706 73.7707 43.479 74.2833C43.4847 74.6193 43.5522 74.998 43.8249 75.2315L42.4216 75.2543C42.3569 75.0179 42.3176 74.7702 42.3063 74.5139C42.2923 74.195 42.2782 73.8875 42.2726 73.5885C42.2641 73.0418 42.1432 72.4951 41.5133 72.4808C41.3727 72.458 41.218 72.458 41.0605 72.4609L40.6584 72.4666L40.7033 75.2828L39.5616 75.3027L39.4575 68.8673L41.5751 68.8332L41.578 68.8303ZM42.2135 70.5417C42.2079 70.163 41.9829 69.7871 41.5723 69.7387C41.443 69.7387 41.3277 69.733 41.1983 69.7387L40.6134 69.7472L40.6415 71.5753L41.3305 71.5639C42.0701 71.4899 42.2248 71.2478 42.2107 70.5445L42.2135 70.5417Z" fill="black"></path><path d="M43.5661 69.8469L43.4001 68.8019L47.2557 68.1726L47.4217 69.2176L46.0887 69.4341L46.9323 74.7418L45.7624 74.9326L44.9188 69.6248L43.5661 69.8441V69.8469Z" fill="black"></path><path d="M48.7408 67.7026L50.4225 73.9073L49.2779 74.2263L47.5962 68.0216L48.7408 67.7026Z" fill="black"></path><path d="M52.6159 66.2534L52.9984 67.2301L51.0214 68.0246L51.5782 69.4455L53.4511 68.6937L53.8252 69.6448L51.9522 70.3965L52.9843 73.0305L51.8819 73.4718L49.5393 67.4892L52.6187 66.2534H52.6159Z" fill="black"></path><path d="M54.1347 65.3962L57.11 71.0827L56.061 71.6437L53.0857 65.9572L54.1347 65.3962Z" fill="black"></path><path d="M60.0121 69.434C59.3091 69.9238 58.4513 69.9864 57.8045 69.3657C57.2983 68.8702 56.8849 68.2808 56.4912 67.6999C55.6644 66.4869 54.6998 64.9748 56.2634 63.8814C57.3911 63.0955 58.2348 63.5141 58.9716 64.5961L58.0239 65.2567C58.0014 65.2083 57.9704 65.1656 57.9423 65.1201C57.7005 64.7641 57.2449 64.3427 56.8062 64.6474C56.3759 64.9492 56.4912 65.382 56.7077 65.7778C56.8793 66.0768 57.0649 66.3644 57.2533 66.6406C57.5064 67.0108 57.7623 67.3895 58.021 67.754C58.1757 67.9789 58.336 68.2011 58.5188 68.3918C58.7944 68.7022 59.1122 68.8902 59.4919 68.6225C59.8659 68.3634 59.8209 67.9533 59.61 67.5974C59.5031 67.3924 59.3681 67.1959 59.2359 67.0023L60.1837 66.3416C60.9317 67.4379 61.2804 68.5456 60.0121 69.4312V69.434Z" fill="black"></path><path d="M60.0543 60.8831L65.4538 64.5763L64.5258 65.459L63.204 64.5108L62.2197 65.4476L63.0831 66.8286L62.1944 67.6743L58.8928 61.9879L60.0571 60.8831H60.0543ZM60.2315 62.2983L61.7079 64.6104L62.4334 63.9213L60.2315 62.2954V62.2983Z" fill="black"></path><path d="M61.6995 60.7577L60.8811 60.0971L63.3193 57.0076L64.1377 57.6682L63.294 58.736L67.4421 62.0932L66.7025 63.03L62.5544 59.6728L61.6995 60.7549V60.7577Z" fill="black"></path><path d="M64.1153 55.6436L69.4783 59.0976L68.8427 60.1113L63.4797 56.6573L64.1153 55.6436Z" fill="black"></path><path d="M68.2072 52.3405C68.1509 52.3149 68.6121 52.5056 69.0846 52.7334C69.6105 52.9869 70.1026 53.2545 70.0492 53.2289C71.1881 53.9066 71.9025 54.7096 71.2528 56.0878C70.8816 56.8765 70.3248 57.3606 69.4221 57.2667C68.6937 57.1499 68.0384 56.8424 67.3776 56.5235C65.9855 55.8514 64.4022 55.0086 65.2571 53.1919C65.9124 51.7966 66.9163 51.8422 68.21 52.3376L68.2072 52.3405ZM70.3951 55.6749C70.7129 54.9972 70.0914 54.5985 69.5627 54.3451L68.629 53.8667L67.6503 53.4225C67.1469 53.1805 66.3933 52.9527 66.0895 53.5991C65.7746 54.2682 66.4158 54.6669 66.9332 54.9459L67.8922 55.43L68.8427 55.8714C69.3658 56.0935 70.0745 56.3498 70.3923 55.6806L70.3951 55.6749Z" fill="black"></path><path d="M66.7308 49.8404L71.4694 49.4788L67.1807 48.2629L67.4901 47.178L73.5955 48.9634L73.2608 50.1422L68.5306 50.5067L72.8109 51.7283L72.5043 52.8046L66.3989 51.0193L66.7364 49.8404H66.7308Z" fill="black"></path><path fill-rule="evenodd" clip-rule="evenodd" d="M62.5686 13.0564C69.2561 13.0564 74.6753 18.6403 74.6753 25.5398C74.6753 27.3565 74.2957 29.0764 73.6151 30.6454L73.0274 30.2069C73.6348 28.7718 73.9554 27.2056 73.9554 25.5427C73.9554 19.0618 68.8596 13.7854 62.5686 13.7854C59.6889 13.7854 57.0735 14.893 55.0655 16.7097L54.4778 16.2712C56.6179 14.2808 59.4611 13.0592 62.5686 13.0592V13.0564Z" fill="url(#paint0_linear_8159_3119)"></path><path fill-rule="evenodd" clip-rule="evenodd" d="M31.7687 26.0239L31.3215 27.7808L33.1495 27.8008L31.974 32.7326H34.55L35.7452 27.7808L38.2622 27.8008L38.5799 26.0239H31.7687Z" fill="white"></path><path fill-rule="evenodd" clip-rule="evenodd" d="M39.3281 26.0239L39.0469 27.7808L41.1392 27.8008L41.8647 32.7326H43.9936L47.298 26.0439H44.8148L43.659 28.5753L43.209 26.0439L39.3281 26.0239Z" fill="white"></path><path fill-rule="evenodd" clip-rule="evenodd" d="M36.0997 28.1225L35.7454 30.6909C35.7454 30.6909 35.7819 32.6956 37.8545 32.6956C40.169 32.6956 40.4671 31.0896 40.5993 30.8048C40.7118 30.5229 40.9705 28.1025 40.9705 28.1025L39.0301 28.1196L38.7488 29.9534C38.7488 29.9534 38.656 30.3891 38.2258 30.3891C37.7955 30.3891 37.8152 30.1442 37.8517 29.8594C37.908 29.5576 38.133 28.1396 38.133 28.1396L36.0969 28.1225H36.0997Z" fill="white"></path><path d="M50.6446 32.724L49.9247 30.5514C49.7504 30.0588 49.5422 29.5291 49.4382 29.233C49.4326 29.5291 49.3145 30.1442 49.2245 30.6909L48.9517 32.7269H47.239L48.347 26.0295H50.0035L50.6643 28.0114C50.8387 28.4841 51.0496 29.1931 51.1312 29.4693C51.1368 29.1732 51.3055 28.4442 51.3843 27.8548L51.6571 26.0295H53.4035L52.2954 32.7269H50.6475L50.6446 32.724Z" fill="white"></path><path d="M55.3384 32.8293C53.7354 32.8293 52.7398 31.6134 52.9676 29.3866C53.1954 27.157 54.4609 25.9241 56.0639 25.9241C57.6669 25.9241 58.6624 27.14 58.4346 29.3695C58.2068 31.5991 56.9413 32.8321 55.3384 32.8321V32.8293ZM55.9514 27.6183C55.3384 27.6183 54.9081 28.2135 54.7393 29.3667C54.5734 30.5199 54.8462 31.1322 55.4593 31.1322C56.0724 31.1322 56.5026 30.537 56.6714 29.3838C56.8373 28.2305 56.5645 27.6155 55.9514 27.6155V27.6183Z" fill="white"></path><path d="M61.3228 32.7239C61.3228 32.7239 60.7969 30.5513 60.3301 30.0786H60.1557L59.7367 32.7239H57.9622L59.0702 26.0266H61.559C62.968 26.0266 63.6429 26.4253 63.5417 28.2078C63.4826 29.2301 62.8217 29.6828 62.1215 29.9391C62.7627 30.7278 63.1901 32.7239 63.1901 32.7239H61.3228ZM61.4184 27.5187H60.5438L60.3526 28.6662H61.2047C61.6293 28.6662 61.8318 28.4555 61.8937 28.0797C61.9471 27.7493 61.8262 27.5159 61.4128 27.5159L61.4184 27.5187Z" fill="white"></path><path d="M64.7453 32.7355H62.9202L64.0001 26.0581H65.9715C67.6026 26.0581 68.6206 26.8668 68.3281 29.5776C68.0553 32.1033 66.7392 32.7383 64.7453 32.7383V32.7355ZM65.9068 27.6413H65.5356L64.99 31.0156H65.3134C66.1149 31.0156 66.4186 30.5543 66.6239 29.2815C66.8151 28.0998 66.5648 27.6413 65.9068 27.6413Z" fill="white"></path><path d="M37.6014 47.4542H37.2104L37.2667 47.2036H38.3157L38.2594 47.4542H37.8685L37.6463 48.5847H37.3679L37.6014 47.4542Z" fill="white"></path><path d="M38.7403 47.2035L38.5603 48.0635C38.5491 48.109 38.5491 48.1546 38.5491 48.1774C38.5491 48.2457 38.5603 48.2913 38.5941 48.3254C38.6278 48.3596 38.684 48.371 38.7487 48.371C38.8134 48.371 38.8725 48.3596 38.9287 48.3254C38.985 48.2913 39.0187 48.2457 39.0412 48.2002C39.0524 48.1432 39.0637 48.0976 39.0749 48.0635L39.2437 47.2035H39.5221L39.3449 48.0976C39.3337 48.1432 39.3224 48.166 39.3224 48.1774C39.3224 48.1888 39.2999 48.2343 39.2774 48.3112C39.2549 48.3795 39.1762 48.4593 39.0665 48.5276C38.954 48.596 38.8331 48.6301 38.7094 48.6301C38.5631 48.6301 38.4647 48.596 38.3859 48.5276C38.3072 48.4593 38.2622 48.3682 38.2622 48.2429C38.2622 48.1973 38.2735 48.1517 38.2847 48.0948L38.4619 47.2007H38.7403V47.2035Z" fill="white"></path><path d="M39.646 47.2036H39.9469L40.0144 48.2344L40.5178 47.2036H40.8075L40.0819 48.5847H39.8119L39.646 47.2036Z" fill="white"></path><path d="M41.457 47.2036H41.7467L42.0813 48.1547L42.2838 47.2036H42.551L42.2613 48.5847H41.9801L41.6342 47.6336L41.4458 48.5847H41.1758L41.457 47.2036Z" fill="white"></path><path d="M43.4116 47.1721C43.5803 47.1721 43.7125 47.2177 43.8025 47.3202C43.8925 47.4227 43.9375 47.5451 43.9375 47.7046C43.9375 47.7729 43.9262 47.8755 43.8925 48.0093C43.87 48.146 43.78 48.2798 43.6366 48.4165C43.5241 48.519 43.4032 48.5873 43.2682 48.6101V48.3624C43.3469 48.351 43.4116 48.3054 43.4791 48.2371C43.5578 48.1346 43.6141 48.0435 43.6225 47.9552C43.645 47.8641 43.6563 47.8071 43.6563 47.7616C43.6563 47.659 43.6338 47.5822 43.5775 47.5138C43.5325 47.4569 43.465 47.4227 43.3666 47.4227C43.3329 47.4227 43.2991 47.4227 43.2654 47.4341V47.1864C43.3216 47.175 43.3666 47.175 43.4088 47.175L43.4116 47.1721ZM43.2654 48.6073C43.2204 48.6187 43.1754 48.63 43.1191 48.63C42.9504 48.63 42.8295 48.5731 42.7395 48.4706C42.6495 48.3795 42.6045 48.2456 42.6045 48.0862V47.995C42.6157 47.9609 42.627 47.8812 42.6495 47.7587C42.672 47.6448 42.762 47.511 42.9054 47.3743C43.0066 47.2718 43.1276 47.2034 43.2626 47.1807V47.4284C43.1838 47.4398 43.1163 47.4853 43.0601 47.5537C42.9701 47.642 42.9251 47.7331 42.9026 47.8242C42.8913 47.9267 42.8801 47.9837 42.8801 48.0292C42.8801 48.1317 42.9026 48.2115 42.9476 48.277C42.9926 48.3453 43.0713 48.3681 43.1698 48.3681C43.2035 48.3681 43.2372 48.3681 43.2597 48.3567V48.6044L43.2654 48.6073Z" fill="white"></path><path d="M44.708 47.2035H45.0089C45.0989 47.2035 45.1551 47.2263 45.1973 47.2833C45.2423 47.3402 45.2648 47.4085 45.2648 47.4968C45.2648 47.5196 45.2535 47.5652 45.2423 47.6221C45.231 47.6791 45.2085 47.7332 45.1635 47.793C45.1185 47.8499 45.0623 47.8955 44.9864 47.9154C45.0201 47.9382 45.0426 47.9496 45.0651 47.9724C45.0876 47.9951 45.0989 48.0179 45.0989 48.0407C45.1101 48.0749 45.1101 48.0976 45.1101 48.1204C45.1101 48.1546 45.1101 48.2002 45.0989 48.2429C45.0876 48.2998 45.0764 48.334 45.0764 48.3682C45.0651 48.3909 45.0651 48.4137 45.0651 48.4251C45.0539 48.4479 45.0539 48.4593 45.0539 48.4707C45.0539 48.4935 45.0651 48.5162 45.0876 48.539L45.0764 48.5846H44.7867C44.7867 48.5846 44.7755 48.5504 44.7755 48.5276C44.7755 48.4821 44.7755 48.4365 44.7867 48.3909C44.798 48.3454 44.8092 48.2998 44.8092 48.2657C44.8205 48.2315 44.8205 48.2087 44.8205 48.1973V48.1745C44.8205 48.129 44.8092 48.0948 44.7867 48.072C44.7642 48.0606 44.7417 48.0492 44.708 48.0492V47.8015H44.7417C44.7867 47.8015 44.8205 47.7901 44.8654 47.7787C44.8992 47.7673 44.9329 47.7446 44.9442 47.7104C44.9667 47.6876 44.9779 47.6534 44.9779 47.6193C44.9892 47.5965 44.9892 47.5851 44.9892 47.5737V47.5623C44.9892 47.5623 44.9892 47.5395 44.9779 47.5168C44.9779 47.494 44.9554 47.4826 44.9329 47.4598C44.9104 47.4484 44.8654 47.437 44.8205 47.437H44.708V47.2007V47.2035ZM44.2721 47.2035H44.708V47.4399H44.497L44.4183 47.8015H44.708V48.0492H44.3733L44.2608 48.5817H43.9937L44.2721 47.2007V47.2035Z" fill="white"></path><path d="M45.9565 47.2035H46.1478C46.1703 47.2035 46.1928 47.2035 46.2265 47.2149C46.3502 47.2149 46.4374 47.2491 46.4937 47.3402C46.5499 47.4313 46.5837 47.5452 46.5837 47.6791C46.5837 47.7474 46.5612 47.8585 46.5387 48.0179C46.5049 48.166 46.4149 48.2998 46.2827 48.4137C46.1928 48.4821 46.0943 48.539 45.9593 48.5618V48.3254C46.0381 48.3141 46.1056 48.2685 46.1618 48.1888C46.2181 48.109 46.2631 48.0293 46.2743 47.941C46.2968 47.8499 46.3081 47.7816 46.3081 47.7246C46.3081 47.6335 46.2856 47.5652 46.2518 47.5225C46.2068 47.4655 46.1393 47.4427 46.0493 47.4427H45.9593V47.2064L45.9565 47.2035ZM45.5769 47.2035H45.9565V47.4399H45.8018L45.6134 48.334H45.9368C45.9368 48.334 45.9481 48.3226 45.9593 48.3226V48.5589C45.8918 48.5703 45.8243 48.5817 45.7484 48.5817H45.3013L45.5797 47.2007L45.5769 47.2035Z" fill="white"></path><path d="M47.7114 48.6302C47.5539 48.6302 47.433 48.5733 47.343 48.4707C47.2642 48.3682 47.2192 48.2458 47.2192 48.0749V47.9838C47.2305 47.9496 47.2417 47.8813 47.2642 47.7589C47.2867 47.6336 47.3767 47.5111 47.5089 47.3745C47.6551 47.2378 47.8211 47.1694 48.0235 47.1694C48.1585 47.1694 48.2682 47.2036 48.3694 47.2719C48.4707 47.3517 48.5157 47.4428 48.5157 47.5652V47.6336H48.2373C48.2373 47.5652 48.2148 47.5083 48.1698 47.4741C48.1135 47.4286 48.0573 47.4058 47.9898 47.4058C47.8661 47.4058 47.7648 47.4627 47.6776 47.5538C47.5989 47.6421 47.5539 47.7332 47.5314 47.8244C47.5089 47.9155 47.5089 47.9838 47.5089 48.0294C47.5089 48.1319 47.5314 48.2116 47.5764 48.2771C47.6214 48.3455 47.7001 48.3682 47.8014 48.3682C47.8801 48.3682 47.956 48.3455 48.0235 48.2885C48.091 48.2316 48.1473 48.1632 48.181 48.0749H47.8801L47.9251 47.8357H48.4735L48.3301 48.5818H48.1417V48.4223C48.0629 48.4907 47.9954 48.5476 47.9392 48.5704C47.8717 48.6046 47.8042 48.6274 47.717 48.6274L47.7114 48.6302Z" fill="white"></path><path d="M48.7717 47.5681H49.0051L48.9714 47.7503C49.0164 47.6706 49.0726 47.6251 49.1289 47.5909C49.1964 47.5567 49.2639 47.5339 49.3398 47.5339L49.2723 47.8158C49.1486 47.8158 49.0698 47.8386 49.0248 47.8728C48.9686 47.9183 48.9461 47.9753 48.9236 48.0436L48.8111 48.5875H48.5552L48.7661 47.5681H48.7717Z" fill="white"></path><path d="M49.9217 47.5341C50.0567 47.5341 50.1579 47.5683 50.2226 47.6366C50.2901 47.7163 50.3238 47.816 50.3238 47.9299C50.3238 47.9755 50.3126 48.0552 50.2901 48.1549C50.2676 48.2688 50.2001 48.3713 50.0989 48.4709C50.0089 48.5393 49.9189 48.5962 49.8092 48.6076V48.3798C49.8542 48.3684 49.8992 48.3342 49.9329 48.2887C49.9892 48.2317 50.0229 48.1634 50.0342 48.1064C50.0454 48.0495 50.0567 48.0039 50.0567 47.9698C50.0567 47.9014 50.0342 47.8559 50.0117 47.8131C49.9779 47.779 49.9329 47.7562 49.8767 47.7562C49.8542 47.7562 49.8317 47.7562 49.8092 47.7676V47.5312H49.9217V47.5341ZM49.812 48.6076C49.7783 48.619 49.7445 48.619 49.6995 48.619C49.5758 48.619 49.4745 48.5848 49.4099 48.5051C49.3424 48.4368 49.2974 48.3342 49.2974 48.2232C49.2974 48.1776 49.3086 48.0979 49.3311 47.9982C49.3536 47.8843 49.4211 47.7847 49.5336 47.6822C49.6123 47.6024 49.7108 47.5569 49.812 47.5341V47.7704C49.767 47.7818 49.722 47.8046 49.6883 47.8502C49.632 47.9185 49.5983 47.9869 49.587 48.0751C49.5758 48.0979 49.5758 48.1093 49.5758 48.1207V48.1776C49.5758 48.2346 49.587 48.2915 49.6095 48.3257C49.6433 48.3713 49.6883 48.394 49.7445 48.394C49.767 48.394 49.7895 48.394 49.812 48.3826V48.6105V48.6076Z" fill="white"></path><path d="M51.2519 48.5847H50.996L51.0185 48.4594C50.9623 48.5163 50.906 48.5505 50.8639 48.5733C50.8189 48.5961 50.7626 48.6075 50.6951 48.6075C50.6051 48.6075 50.5404 48.5847 50.4955 48.5505C50.4617 48.5049 50.4392 48.448 50.4392 48.3711V48.3142C50.4392 48.3142 50.4392 48.2914 50.4505 48.2572L50.5854 47.5681H50.8526L50.7176 48.1803C50.7176 48.2145 50.7064 48.2373 50.7064 48.2601C50.7064 48.2942 50.7176 48.3284 50.7401 48.3512C50.7626 48.374 50.7851 48.3854 50.8301 48.3854C50.8864 48.3854 50.9426 48.3626 50.9876 48.3284C51.0326 48.2828 51.0663 48.2373 51.0776 48.1689L51.2013 47.571H51.4572L51.2548 48.5904L51.2519 48.5847Z" fill="white"></path><path d="M52.0564 47.5795H52.0676C52.1239 47.5453 52.1801 47.5339 52.2448 47.5339C52.346 47.5339 52.4248 47.5681 52.4698 47.6364C52.526 47.7162 52.5485 47.8044 52.5485 47.9183C52.5485 47.9753 52.5373 48.0436 52.5148 48.1433C52.4923 48.2344 52.436 48.3341 52.346 48.448C52.2673 48.5505 52.1689 48.6074 52.0564 48.6188V48.3796C52.1014 48.3569 52.1351 48.3341 52.1689 48.2885C52.2251 48.2316 52.2476 48.1746 52.2589 48.1063C52.2814 48.0493 52.2814 48.0038 52.2814 47.9696C52.2814 47.9013 52.2701 47.8557 52.2476 47.813C52.2251 47.7788 52.1801 47.756 52.1239 47.756C52.1014 47.756 52.0789 47.7674 52.0564 47.7674V47.5738V47.5795ZM51.688 47.5681H51.9439L51.9101 47.7048C51.9551 47.6478 52.0001 47.6137 52.0564 47.5795V47.7731C52.0114 47.7845 51.9664 47.8187 51.9326 47.8529C51.8877 47.9212 51.8539 47.9781 51.8427 48.0351C51.8314 48.1034 51.8314 48.149 51.8314 48.1832C51.8314 48.2401 51.8427 48.2971 51.8652 48.3312C51.8877 48.3768 51.9326 48.3882 51.9973 48.3882H52.0536V48.6274H52.0198C51.9523 48.6274 51.9073 48.616 51.8539 48.5818C51.8089 48.559 51.7752 48.5135 51.7639 48.4679L51.6514 49.0004H51.3955L51.6852 47.5767L51.688 47.5681Z" fill="white"></path><path fill-rule="evenodd" clip-rule="evenodd" d="M38.6842 46.7737H38.9204L38.8642 47.0584H38.6279L38.6842 46.7737Z" fill="white"></path><path fill-rule="evenodd" clip-rule="evenodd" d="M39.1424 46.7737H39.3786L39.3336 47.0584H39.0974L39.1424 46.7737Z" fill="white"></path><path fill-rule="evenodd" clip-rule="evenodd" d="M54.3202 43.4733L53.6059 43.2825C53.4934 43.2597 53.4062 43.2369 53.3387 43.1914C53.26 43.1572 53.2375 43.0889 53.26 42.9977C53.2825 42.8952 53.3387 42.8269 53.4174 42.7956C53.4849 42.7614 53.5749 42.75 53.6846 42.75C53.8309 42.75 53.9405 42.7728 54.0305 42.8183C54.1205 42.8753 54.1655 42.955 54.1543 43.0775H55.3607C55.3945 42.6817 55.282 42.3884 55.0261 42.1947C54.7701 42.0011 54.413 41.9128 53.9658 41.9128C53.5187 41.9128 53.0828 42.0154 52.7031 42.2175C52.3235 42.4197 52.0901 42.7272 51.9888 43.1344C51.8988 43.5188 51.9776 43.778 52.2222 43.9146C52.4557 44.0513 52.8044 44.1851 53.2487 44.299C53.6846 44.4129 53.8955 44.5354 53.8618 44.6721C53.8393 44.7518 53.783 44.8201 53.6931 44.8657C53.6143 44.9227 53.4821 44.9454 53.3134 44.9454C53.1559 44.9454 53.035 44.9113 52.945 44.8543C52.8663 44.7974 52.8213 44.7062 52.8213 44.5724H51.7329L51.4686 41.9698H50.1384L48.527 44.8999H47.7142L48.361 41.947H47.0871L46.2153 45.962H49.1963L49.2469 45.7313L49.4072 45.3982H50.6249L50.6474 45.9307H51.8651L51.8145 45.4352C51.8454 45.4694 51.8735 45.5064 51.9101 45.5349C52.1688 45.7256 52.5457 45.8282 53.0378 45.8282C53.5299 45.8282 53.9658 45.7256 54.3652 45.5121C54.7673 45.2957 55.012 44.991 55.1132 44.561C55.1807 44.2791 55.1357 44.0513 54.9782 43.8719C54.832 43.6897 54.5986 43.5672 54.3089 43.4761L54.3202 43.4733ZM49.8881 44.4329L50.234 43.721L50.4927 43.1999L50.594 44.4329H49.8909H49.8881ZM31.7125 43.0091L31.9038 41.947H27.826L27.5588 42.9977L28.6528 43.0091L27.9497 45.962H29.4909L30.2052 42.9977L31.7125 43.0091ZM32.005 44.299C32.005 44.299 31.9488 44.5582 31.6928 44.5582C31.4369 44.5582 31.4482 44.4101 31.4707 44.2421C31.5044 44.0627 31.6366 43.2113 31.6366 43.2113L30.4189 43.1999L30.208 44.7376C30.208 44.7376 30.2305 45.9364 31.4707 45.9364C32.8543 45.9364 33.0343 44.9768 33.113 44.8059C33.1805 44.6379 33.3352 43.1885 33.3352 43.1885L32.1737 43.1999L32.005 44.2962V44.299ZM44.5926 44.897L45.2394 41.9442H43.9655L43.0937 45.9591H46.0775L46.3109 44.8942H44.5898L44.5926 44.897ZM34.941 43.4733L34.6738 41.9584L32.3509 41.947L32.1822 42.9977L33.4336 43.0091L33.8695 45.962H35.1435L37.1205 41.9584H35.6356L34.9438 43.4733H34.941ZM41.3192 44.3532H42.849L43.0374 43.4363H41.5076L41.6201 42.8924H43.4396L43.628 41.9299H40.3321L40.0537 43.1971H39.0497L39.3281 41.9299H37.9867L37.1599 45.9563H38.5013L38.8135 44.3959H39.8287L39.5053 45.9563H42.8659L43.0684 44.9853H41.1814L41.3164 44.3532H41.3192Z" fill="white"></path></g><defs><linearGradient id="paint0_linear_8159_3119" x1="72.2062" y1="11.2084" x2="57.4454" y2="32.8184" gradientUnits="userSpaceOnUse"><stop stop-color="white"></stop><stop offset="0.28" stop-color="white"></stop><stop offset="0.54" stop-color="#1A171B"></stop><stop offset="1" stop-color="#1A171B"></stop></linearGradient><clipPath id="clip0_8159_3119"><rect width="82" height="83" fill="white"></rect></clipPath></defs></svg> 