<?xml version="1.0" encoding="UTF-8"?> <svg xmlns="http://www.w3.org/2000/svg" width="68" height="79" viewBox="0 0 68 79" fill="none"><g clip-path="url(#clip0_8159_3171)"><path d="M64.2651 0.337548H3.74035C1.85958 0.337548 0.340088 1.84025 0.340088 3.69622V75.304C0.340088 77.16 1.85958 78.6679 3.74035 78.6679H64.2651C66.1405 78.6679 67.6654 77.1652 67.6654 75.304V3.69622C67.6654 1.84025 66.1459 0.332275 64.2651 0.332275V0.337548Z" fill="black"></path><path d="M3.74035 0.337402H64.2651C66.1459 0.337402 67.6654 1.84538 67.6654 3.69608V75.3038C67.6654 77.1598 66.1459 78.6625 64.2651 78.6625H3.74035C1.85958 78.6625 0.340088 77.1545 0.340088 75.3038V3.69608C0.340088 1.84011 1.85958 0.337402 3.74035 0.337402Z" stroke="white" stroke-width="1.28"></path><path d="M18.5687 62.7761L17.5115 59.5071H18.1171L18.6697 61.3894L18.8663 62.0959C18.8769 62.0643 18.9353 61.8429 19.0522 61.4263L19.5995 59.5071H20.1945L20.7045 61.4L20.8746 62.0274L21.0764 61.4L21.6768 59.5071H22.2453L21.1455 62.7761H20.5558L20.0192 60.82L19.8863 60.2663L19.1797 62.7814H18.5741L18.5687 62.7761Z" fill="white"></path><path d="M23.4726 62.7761L22.4153 59.5071H23.0263L23.5788 61.3894L23.7754 62.0959C23.786 62.0643 23.8445 61.8429 23.9613 61.4263L24.5033 59.5071H25.0983L25.6137 61.4L25.7784 62.0274L25.9803 61.4L26.5859 59.5071H27.1544L26.0493 62.7761H25.4649L24.923 60.82L24.7902 60.2663L24.0782 62.7814H23.4779L23.4726 62.7761Z" fill="white"></path><path d="M28.3762 62.7761L27.3242 59.5071H27.9299L28.4824 61.3894L28.679 62.0959C28.6843 62.0643 28.7481 61.8429 28.8597 61.4263L29.4069 59.5071H30.0019L30.512 61.4L30.6767 62.0274L30.8786 61.4L31.4842 59.5071H32.0527L30.9529 62.7761H30.3632L29.8266 60.82L29.6938 60.2663L28.9872 62.7814H28.3815L28.3762 62.7761Z" fill="white"></path><path d="M32.175 62.7761V62.1487H32.8338V62.7761H32.175Z" fill="white"></path><path d="M33.8272 62.7762V59.9342H33.3225V59.5071H33.8272V59.1591C33.8272 58.9377 33.8485 58.7795 33.8857 58.6688C33.9441 58.5264 34.0451 58.4104 34.1832 58.3208C34.3213 58.2311 34.5232 58.189 34.7782 58.189C34.9376 58.189 35.1183 58.2101 35.3202 58.247L35.2352 58.7268C35.113 58.7057 34.9961 58.6951 34.8951 58.6951C34.7198 58.6951 34.5923 58.7268 34.5232 58.8006C34.4488 58.8744 34.4117 59.0062 34.4117 59.2066V59.5071H35.0811V59.9395H34.4117V62.7762H33.8325H33.8272Z" fill="white"></path><path d="M35.3733 61.7901L35.9577 61.7163C35.9896 61.9324 36.0746 62.1012 36.2234 62.2224C36.3721 62.3332 36.574 62.3912 36.8397 62.3912C37.1053 62.3912 37.3019 62.3384 37.4294 62.2382C37.5569 62.1328 37.6207 62.0115 37.6207 61.8692C37.6207 61.7426 37.5622 61.6424 37.4506 61.5739C37.3709 61.5264 37.1744 61.4632 36.8609 61.3894C36.4412 61.2892 36.149 61.1995 35.9843 61.1257C35.8143 61.0466 35.6921 60.9464 35.6071 60.8146C35.522 60.6828 35.4795 60.5352 35.4795 60.377C35.4795 60.2294 35.5114 60.0976 35.5858 59.9763C35.6496 59.8497 35.7452 59.7496 35.8674 59.6652C35.963 59.6072 36.0799 59.5545 36.2393 59.5017C36.3987 59.4596 36.5634 59.4385 36.7387 59.4385C37.0044 59.4385 37.2381 59.4754 37.44 59.5492C37.6419 59.623 37.7907 59.7232 37.8863 59.8497C37.9819 59.9763 38.0457 60.1503 38.0882 60.3559L37.5197 60.4297C37.4931 60.261 37.4188 60.1239 37.3019 60.029C37.1797 59.9341 37.0044 59.8867 36.7865 59.8867C36.5209 59.8867 36.3349 59.9288 36.2234 60.0132C36.1065 60.0976 36.0533 60.1925 36.0533 60.3085C36.0533 60.3823 36.0746 60.4455 36.1224 60.5035C36.1702 60.5615 36.2446 60.6143 36.3456 60.6512C36.3987 60.6723 36.5687 60.7197 36.8503 60.7935C37.2541 60.899 37.541 60.9834 37.7057 61.0466C37.8704 61.1152 37.9979 61.2101 38.0882 61.3366C38.1785 61.4632 38.2263 61.6214 38.2263 61.8112C38.2263 62.001 38.1679 62.1644 38.0563 62.3332C37.9447 62.4966 37.7854 62.6232 37.5728 62.7075C37.3603 62.7971 37.1212 62.8446 36.8503 62.8446C36.4093 62.8446 36.0693 62.7602 35.8355 62.581C35.6017 62.4017 35.453 62.1381 35.3892 61.7901H35.3733Z" fill="white"></path><path d="M41.1007 61.5844L41.6691 61.6583C41.6054 62.0326 41.446 62.3226 41.1963 62.5335C40.936 62.7444 40.6225 62.8499 40.2506 62.8499C39.7831 62.8499 39.4058 62.7022 39.1243 62.4175C38.8374 62.1222 38.6992 61.7057 38.6992 61.1626C38.6992 60.8094 38.763 60.4983 38.8799 60.2294C39.0021 59.9657 39.188 59.7707 39.4377 59.6388C39.6874 59.507 39.9584 59.4385 40.2559 59.4385C40.6278 59.4385 40.9253 59.5281 41.1644 59.7127C41.3982 59.8919 41.5523 60.1503 41.616 60.4825L41.0475 60.5563C40.9944 60.3401 40.8988 60.1714 40.7606 60.0606C40.6278 59.9499 40.4631 59.8972 40.2665 59.8972C39.9743 59.8972 39.7406 59.9974 39.5599 60.1925C39.3793 60.3928 39.2836 60.7145 39.2836 61.1468C39.2836 61.5792 39.374 61.9061 39.5493 62.1012C39.7246 62.3015 39.9531 62.4017 40.2347 62.4017C40.4631 62.4017 40.6491 62.3332 40.8031 62.2013C40.9519 62.0695 41.0528 61.8639 41.09 61.5897L41.1007 61.5844Z" fill="white"></path><path d="M42.2908 62.7761V62.1487H42.9496V62.7761H42.2908Z" fill="white"></path><path d="M43.4863 61.1468C43.4863 60.5352 43.6617 60.0923 44.0176 59.797C44.3098 59.5545 44.6711 59.4385 45.0961 59.4385C45.569 59.4385 45.9515 59.5861 46.2544 59.8761C46.5519 60.1714 46.7006 60.5774 46.7006 61.0994C46.7006 61.5212 46.6369 61.8481 46.5041 62.0906C46.3712 62.3332 46.18 62.5177 45.925 62.6548C45.6753 62.7866 45.3937 62.8551 45.0961 62.8551C44.6127 62.8551 44.2301 62.7075 43.9326 62.4175C43.6404 62.1222 43.4863 61.7004 43.4863 61.1521V61.1468ZM44.0814 61.1415C44.0814 61.5581 44.177 61.8744 44.3736 62.0853C44.5648 62.291 44.8092 62.3964 45.0961 62.3964C45.383 62.3964 45.6274 62.291 45.8187 62.0801C46.01 61.8744 46.1109 61.5528 46.1109 61.1257C46.1109 60.7197 46.0153 60.4139 45.8187 60.203C45.6274 59.9974 45.383 59.8919 45.0961 59.8919C44.8092 59.8919 44.5648 59.9974 44.3736 60.203C44.177 60.4086 44.0814 60.7303 44.0814 61.1468V61.1415Z" fill="white"></path><path d="M47.3699 62.776V59.5069H47.8852V60.0078C48.0234 59.7758 48.1456 59.6176 48.2571 59.5438C48.3687 59.47 48.4962 59.4331 48.629 59.4331C48.8256 59.4331 49.0275 59.4858 49.2294 59.6124L49.0222 60.1185C48.8841 60.0447 48.7459 60.0131 48.6025 60.0131C48.4803 60.0131 48.3687 60.05 48.2624 60.1185C48.1668 60.1924 48.0924 60.2925 48.0499 60.4244C47.9862 60.6194 47.9543 60.8304 47.9543 61.0676V62.776H47.3752H47.3699Z" fill="white"></path><path d="M49.4101 63.045L49.9892 63.1188C50.0158 63.2876 50.0742 63.4088 50.1858 63.4879C50.3292 63.5934 50.5258 63.6461 50.7755 63.6461C51.0412 63.6461 51.2537 63.5934 51.3971 63.4879C51.5406 63.3825 51.6415 63.2401 51.6947 63.0556C51.7212 62.9396 51.7372 62.7023 51.7318 62.3385C51.4768 62.6285 51.158 62.7708 50.7808 62.7708C50.3027 62.7708 49.9361 62.6074 49.6811 62.2857C49.4207 61.9588 49.2932 61.5739 49.2932 61.1205C49.2932 60.8094 49.3517 60.5194 49.4685 60.2558C49.5907 59.9922 49.7607 59.7865 49.9892 59.6442C50.2123 59.4965 50.478 59.428 50.7808 59.428C51.1899 59.428 51.5193 59.5862 51.785 59.9078V59.5018H52.3163V62.3279C52.3163 62.8394 52.2631 63.1926 52.1516 63.4088C52.0453 63.6197 51.87 63.7885 51.6362 63.9097C51.3971 64.031 51.1102 64.0943 50.7649 64.0943C50.3558 64.0943 50.0264 64.0099 49.7714 63.8359C49.5217 63.6566 49.3995 63.393 49.4101 63.0397V63.045ZM49.8829 61.0836C49.8829 61.5107 49.9786 61.827 50.1539 62.0221C50.3345 62.2225 50.563 62.3174 50.8286 62.3174C51.0943 62.3174 51.3227 62.2225 51.5087 62.0274C51.6893 61.827 51.7797 61.5212 51.7797 61.0994C51.7797 60.6776 51.6893 60.3929 51.4981 60.1925C51.3121 59.9922 51.089 59.8867 50.8233 59.8867C50.5577 59.8867 50.3399 59.9869 50.1592 60.1872C49.9786 60.3929 49.8829 60.6881 49.8829 61.0836Z" fill="white"></path><path d="M35.2194 5.81035C24.737 5.81035 21.0339 21.3119 17.5858 33.7817C16.3426 32.5796 12.5067 28.9414 12.5014 28.9467C11.731 28.2191 10.8437 28.4563 10.3018 28.9625C9.75991 29.4845 9.68021 30.4441 10.3018 31.0294C10.3337 31.0558 15.5032 35.9593 17.2883 37.6571C17.7824 38.1158 18.4943 38.3847 19.201 37.984C19.9395 37.5569 20.0457 36.7871 20.0616 36.7871C26.1821 10.6875 31.6544 8.74194 35.2035 8.74194C38.1893 8.74194 41.6321 10.8405 41.6321 15.0427C46.0896 15.0427 48.8789 20.6054 45.2927 24.0379C48.2679 25.4035 49.5908 27.0907 49.5908 29.2156C49.5908 31.3405 47.7101 33.5234 44.9792 33.5181C42.2696 33.5181 40.883 31.8572 38.7684 31.8519C37.8121 31.8519 37.2277 32.5901 37.2277 33.3125V38.5851H33.2324V33.3335C33.2271 32.511 32.5895 31.8625 31.7979 31.8625C31.7819 31.8625 31.4525 31.873 31.4632 31.8783L26.1131 32.511C25.4649 32.5954 24.8698 33.265 24.8698 33.9557C24.8698 34.7624 25.5605 35.4321 26.5115 35.4215C26.6284 35.4215 26.7931 35.4215 26.7772 35.411C26.7719 35.411 30.1668 34.9944 30.1668 34.9944V40.1933C30.1668 40.8576 30.9531 41.4956 31.6544 41.5009H38.7631C39.5919 41.5009 40.3092 40.8207 40.3092 40.0245V35.2739C41.7968 36.1386 43.8635 36.476 44.9261 36.476C48.9108 36.476 52.7148 33.4917 52.6989 29.126C52.6829 25.1557 49.5005 23.1784 49.5005 23.1784C51.3707 18.4383 48.3476 13.8617 44.4214 12.5857C43.0081 7.69268 38.6197 5.7998 35.2247 5.7998L35.2194 5.81035Z" fill="white"></path><path d="M30.7406 47.3113C30.7406 48.5398 32.1804 49.278 34.5446 50.3484C36.4254 51.1867 37.5039 52.0725 37.5039 52.779C37.5039 53.9285 36.2023 54.3398 34.9803 54.3398C33.0942 54.3398 31.9785 53.6227 31.3622 52.0198L31.3144 51.8827H31.1603C30.8256 51.8827 30.5653 51.8985 30.4165 52.0725C30.2837 52.2307 30.3209 52.4469 30.3793 52.6525C30.374 52.6525 30.7937 54.2976 30.7937 54.2976C30.9053 54.7036 31.0594 54.7668 31.7288 54.8881C32.0263 54.9356 33.5511 55.1886 34.8422 55.1886C38.4496 55.1886 40.0594 53.7967 40.0594 52.4152C40.0594 51.4082 39.0128 50.4485 36.7548 49.3782L35.7241 48.9089C34.178 48.2077 33.2483 47.7911 33.2483 47.053C33.2483 46.3148 34.2152 45.8403 35.6019 45.8403C37.403 45.8403 37.8865 46.7999 38.1043 47.6329L38.1468 47.7911H38.3168C38.7153 47.7911 38.9703 47.7595 39.119 47.6066C39.2094 47.5222 39.2412 47.401 39.2253 47.2586L39.0819 45.8297C39.0447 45.3763 38.6781 45.3077 38.168 45.2128C37.5624 45.1074 36.8398 44.9861 35.74 44.9861C32.6107 44.9861 30.7406 45.8561 30.7406 47.3113Z" fill="white"></path><path d="M41.1221 50.2007C41.1221 52.6789 43.3854 55.1992 47.7154 55.1992C49.899 55.1992 51.1316 54.7247 52.0454 54.2607L52.2951 54.1341L51.8913 53.7123L51.9126 53.7334C51.817 53.6016 51.7426 53.5805 51.5991 53.5805L51.3866 53.649C51.0572 53.7967 50.0584 54.2343 48.2361 54.2343C45.9993 54.2343 43.5819 52.8423 43.5819 49.7842C43.5819 46.7261 46.2012 45.8403 48.4326 45.8403C50.0425 45.8403 50.8978 46.3886 51.0519 47.517L51.0732 47.7068H51.2751C51.461 47.7068 51.9764 47.7068 51.9764 47.343V45.6452C51.9764 45.2286 51.4716 45.1654 51.2591 45.139L51.0519 45.1126C50.5366 45.0441 50.0478 44.9861 48.7355 44.9861C44.3258 44.9861 41.1221 47.1848 41.1221 50.206V50.2007Z" fill="white"></path><path d="M24.7954 45.1022L20.8957 45.1339L18.2924 45.0917H17.8992C17.6654 45.0864 17.5007 45.2446 17.5007 45.4713C17.5007 45.5768 17.5007 45.909 17.9311 45.909C19.5037 45.909 19.5621 46.0355 19.5781 46.6049L19.5887 46.9688L19.61 48.4978V51.788C19.61 52.331 19.594 53.201 19.5515 53.9023C19.5409 54.1026 19.5303 54.2925 18.1383 54.2925C17.7504 54.2925 17.5167 54.3663 17.5167 54.7301C17.5167 54.8355 17.5167 55.1203 17.8939 55.1203H17.9789C18.1436 55.1097 18.5846 55.0939 20.7576 55.0939C23.0687 55.0939 23.5362 55.115 23.6903 55.1203H23.7753C24.0781 55.1203 24.3438 55.0939 24.3438 54.7354C24.3438 54.3294 23.9931 54.2977 23.4034 54.2977C22.0114 54.2977 22.0008 54.1079 21.9901 53.9076C21.9583 53.2643 21.9317 52.3943 21.9317 51.7932V50.6069H23.0952C24.8857 50.6069 25.0876 50.6543 25.3479 51.962C25.417 52.2467 25.6561 52.2836 25.8579 52.2836C26.2777 52.2836 26.3255 52.0674 26.3255 51.9672L26.2883 51.4769C26.2617 51.1921 26.2299 50.8441 26.2299 50.3643V48.3502C26.2299 48.0444 25.8526 48.0444 25.6454 48.0444C25.3054 48.0444 25.231 48.25 25.0132 49.2044C24.9176 49.5682 24.1791 49.7791 22.989 49.7791H21.937V46.8159C21.937 46.0091 22.0858 46.0039 22.2717 45.9986C22.9571 45.9722 24.6147 45.9142 25.1141 45.9142C25.587 45.9142 26.0226 46.0197 26.3042 46.1937C27.1862 46.7209 27.6431 47.0742 27.9194 47.2851C28.185 47.4907 28.3391 47.612 28.5569 47.612C28.6844 47.612 29.0616 47.612 29.0616 47.3009C29.0616 47.2218 29.0298 47.1533 28.9076 46.9002C28.7641 46.5944 28.5197 46.0935 28.2116 45.329C28.1266 45.0864 27.829 45.0864 27.2818 45.0864L24.8007 45.1075L24.7954 45.1022Z" fill="white"></path><path d="M48.0181 7.30786C48.5919 7.30786 49.0913 7.51349 49.5004 7.91949C49.9148 8.32548 50.122 8.81584 50.122 9.39055C50.122 9.96527 49.9148 10.4556 49.5057 10.8669C49.0913 11.2729 48.5972 11.4785 48.0181 11.4785C47.439 11.4785 46.9396 11.2729 46.5252 10.8669C46.1108 10.4609 45.9036 9.96527 45.9036 9.39055C45.9036 8.81584 46.1108 8.33075 46.5252 7.91949C46.9396 7.51349 47.439 7.30786 48.0181 7.30786ZM48.0075 11.1358C48.491 11.1358 48.9054 10.9671 49.2507 10.6244C49.596 10.2816 49.7714 9.87564 49.7714 9.39055C49.7714 8.91074 49.6014 8.50475 49.256 8.16203C48.9107 7.82458 48.4963 7.65586 48.0128 7.65058C47.5293 7.65058 47.1149 7.81931 46.7696 8.15676C46.4295 8.49948 46.2542 8.90547 46.2542 9.38528C46.2542 9.86509 46.4242 10.2764 46.7696 10.6191C47.1149 10.9618 47.5293 11.1305 48.0128 11.1305L48.0075 11.1358ZM48.9957 10.5453H48.5494C48.2678 10.0391 48.0819 9.75437 47.9969 9.6911C47.9118 9.62782 47.8056 9.59619 47.6728 9.59619H47.4549V10.5505H47.0883V8.30966H47.8747C48.1084 8.30966 48.2891 8.32548 48.4166 8.35712C48.5441 8.38875 48.645 8.4573 48.7247 8.56802C48.7991 8.67348 48.8416 8.78947 48.8416 8.91602C48.8416 9.06892 48.7832 9.21129 48.6769 9.33256C48.5653 9.4591 48.4059 9.52764 48.1934 9.54346V9.55401C48.3263 9.58564 48.5069 9.77019 48.7194 10.1129L48.9957 10.5505V10.5453ZM47.4549 9.2851H47.9012C48.1031 9.2851 48.2466 9.25874 48.3263 9.19547C48.4059 9.13747 48.4485 9.05311 48.4485 8.94238C48.4485 8.83165 48.4113 8.75257 48.3369 8.69457C48.2625 8.63657 48.1084 8.6102 47.8747 8.6102H47.4549V9.2851Z" fill="white"></path><path d="M48.0181 7.30786C48.5919 7.30786 49.0913 7.51349 49.5004 7.91949C49.9148 8.32548 50.122 8.81584 50.122 9.39055C50.122 9.96527 49.9148 10.4556 49.5057 10.8669C49.0913 11.2729 48.5972 11.4785 48.0181 11.4785C47.439 11.4785 46.9396 11.2729 46.5252 10.8669C46.1108 10.4609 45.9036 9.96527 45.9036 9.39055C45.9036 8.81584 46.1108 8.32548 46.5252 7.91949C46.9396 7.51349 47.439 7.30786 48.0181 7.30786ZM48.0075 11.1358C48.491 11.1358 48.9054 10.9671 49.2507 10.6244C49.596 10.2816 49.7714 9.87037 49.7714 9.39055C49.7714 8.91074 49.6014 8.50475 49.256 8.16203C48.9107 7.82458 48.4963 7.65586 48.0128 7.65058C47.5293 7.65058 47.1149 7.81931 46.7696 8.15676C46.4295 8.49421 46.2542 8.90547 46.2542 9.38528C46.2542 9.86509 46.4242 10.2764 46.7696 10.6191C47.1096 10.9565 47.5293 11.1305 48.0128 11.1305L48.0075 11.1358ZM48.9957 10.5505H48.5494C48.2678 10.0444 48.0819 9.75964 47.9969 9.69637C47.9118 9.6331 47.8056 9.60146 47.6728 9.60146H47.4549V10.5558H47.0883V8.31494H47.8747C48.1084 8.31494 48.2891 8.33075 48.4166 8.36239C48.5441 8.39403 48.645 8.46784 48.7247 8.5733C48.7991 8.67875 48.8416 8.79475 48.8416 8.92129C48.8416 9.0742 48.7832 9.21128 48.6769 9.33783C48.5653 9.46437 48.4059 9.53292 48.1934 9.54873V9.55928C48.3263 9.59092 48.5069 9.77546 48.7194 10.1182L48.9957 10.5558V10.5505ZM47.4549 9.2851H47.9012C48.1031 9.2851 48.2466 9.25874 48.3263 9.19547C48.4059 9.13747 48.4485 9.05311 48.4485 8.94238C48.4485 8.83165 48.4113 8.75257 48.3369 8.69457C48.2625 8.63657 48.1084 8.6102 47.8747 8.6102H47.4549V9.2851Z" stroke="white" stroke-width="0.42"></path><path d="M16.8206 70.0522H14.5998V71.3071H16.5231V71.7869H14.5998V73.6218H14.0579V69.5671H16.8206V70.047V70.0522Z" fill="white"></path><path d="M16.8206 70.0522H14.5998V71.3071H16.5284V71.7869H14.5998V73.6218H14.0579V69.5671H16.8206V70.047V70.0522Z" stroke="white" stroke-width="0.42"></path><path d="M20.1943 70.7589C20.173 70.5005 20.0774 70.3107 19.9127 70.1789C19.748 70.0524 19.5089 69.9838 19.2008 69.9838C18.9192 69.9838 18.696 70.0365 18.5154 70.1367C18.3401 70.2422 18.2551 70.3898 18.2551 70.5902C18.2551 70.7642 18.3188 70.896 18.457 70.9803C18.5898 71.0647 18.8501 71.1491 19.2326 71.2387C19.5727 71.3125 19.8489 71.3863 20.0615 71.4654C20.2793 71.5445 20.4599 71.6658 20.614 71.824C20.7681 71.9874 20.8425 72.2089 20.8425 72.483C20.8425 72.831 20.7043 73.121 20.4227 73.3478C20.1465 73.5798 19.7799 73.6958 19.323 73.6958C18.7438 73.6958 18.3188 73.5692 18.0319 73.3161C17.7503 73.063 17.5963 72.7309 17.5803 72.3249L18.0957 72.2827C18.1169 72.6043 18.2444 72.8416 18.4729 72.9892C18.7013 73.1369 18.9776 73.2107 19.3017 73.2159C19.6045 73.2159 19.8489 73.1527 20.0349 73.0314C20.2208 72.9101 20.3165 72.7414 20.3165 72.5305C20.3165 72.309 20.2208 72.1456 20.0243 72.0454C19.8277 71.9452 19.5036 71.8451 19.0414 71.7449C18.5792 71.65 18.2497 71.5076 18.0425 71.3283C17.8353 71.1491 17.7344 70.9171 17.7397 70.6324C17.7397 70.3107 17.8672 70.0418 18.1276 69.8309C18.3826 69.62 18.7385 69.5093 19.1795 69.5093C19.6205 69.5093 20.003 69.6147 20.274 69.8256C20.5502 70.0365 20.699 70.3371 20.7149 70.7273L20.1943 70.7694V70.7589Z" fill="white"></path><path d="M20.1945 70.7588C20.1732 70.5004 20.0776 70.3053 19.9129 70.1788C19.7482 70.0523 19.5091 69.9837 19.2009 69.9837C18.9194 69.9837 18.6962 70.0364 18.5156 70.1366C18.3403 70.2421 18.2552 70.3897 18.2552 70.5848C18.2552 70.7588 18.319 70.8906 18.4571 70.975C18.59 71.0593 18.8503 71.1437 19.2328 71.2333C19.5729 71.3071 19.8491 71.381 20.0616 71.4601C20.2795 71.5391 20.4601 71.6551 20.6142 71.8186C20.7683 71.982 20.8426 72.2035 20.8426 72.4777C20.8426 72.8257 20.7045 73.1157 20.4229 73.3424C20.1466 73.5744 19.7747 73.6904 19.3231 73.6904C18.744 73.6904 18.3137 73.5638 18.0321 73.3107C17.7452 73.0577 17.5964 72.7255 17.5752 72.3195L18.0905 72.2773C18.1118 72.5989 18.2393 72.8362 18.4678 72.9838C18.6962 73.1315 18.9725 73.2053 19.2966 73.2106C19.5994 73.2106 19.8438 73.1473 20.0298 73.026C20.2157 72.9048 20.3113 72.736 20.3113 72.5251C20.3113 72.3037 20.2157 72.1402 20.0191 72.04C19.8226 71.9399 19.4985 71.8397 19.0362 71.7395C18.574 71.6446 18.2446 71.5022 18.0374 71.323C17.8302 71.1437 17.7293 70.9117 17.7346 70.627C17.7346 70.3053 17.8621 70.0364 18.1224 69.8255C18.3774 69.6146 18.7281 69.5039 19.1744 69.5039C19.6207 69.5039 19.9979 69.6094 20.2688 69.8203C20.5451 70.0312 20.6939 70.3317 20.7098 70.7219L20.1891 70.7641L20.1945 70.7588Z" stroke="white" stroke-width="0.42"></path><path d="M25.2736 72.3355C25.1514 72.7889 24.9442 73.1316 24.6466 73.3531C24.3491 73.5798 23.9931 73.6905 23.5787 73.6905C22.9093 73.6905 22.4205 73.4796 22.1124 73.0684C21.8095 72.6571 21.6555 72.1562 21.6501 71.5657C21.6501 70.9171 21.8308 70.4162 22.1867 70.0471C22.548 69.6833 23.0103 69.4988 23.5787 69.4988C23.9772 69.4988 24.3172 69.599 24.6041 69.7993C24.891 69.9997 25.0876 70.295 25.1992 70.6799L24.6679 70.8011C24.5776 70.5217 24.4394 70.3055 24.2588 70.1631C24.0781 70.0208 23.8497 69.9522 23.5734 69.9522C23.1271 69.9522 22.7871 70.0946 22.5587 70.3846C22.3249 70.6746 22.2133 71.0648 22.2133 71.5551C22.2133 72.1193 22.3355 72.5358 22.5746 72.81C22.819 73.0842 23.1324 73.2213 23.5256 73.2213C23.8497 73.2213 24.1047 73.1369 24.3066 72.9629C24.5085 72.7942 24.6466 72.5358 24.7316 72.1931L25.2736 72.3249V72.3355Z" fill="white"></path><path d="M25.2735 72.3355C25.1513 72.7889 24.9441 73.1316 24.6466 73.3531C24.349 73.5798 23.9931 73.6905 23.5734 73.6905C22.9039 73.6905 22.4151 73.4849 22.107 73.0684C21.8042 72.6518 21.6501 72.1562 21.6448 71.5657C21.6448 70.9171 21.8254 70.4162 22.1867 70.0471C22.548 69.6833 23.0102 69.4988 23.5787 69.4988C23.9771 69.4988 24.3225 69.599 24.6041 69.7993C24.891 69.9997 25.0875 70.295 25.1991 70.6799L24.6678 70.8011C24.5775 70.5217 24.4447 70.3055 24.2587 70.1631C24.0781 70.0208 23.8496 69.9522 23.5734 69.9522C23.1271 69.9522 22.7871 70.0946 22.5586 70.3846C22.3248 70.6746 22.2133 71.0648 22.2133 71.5551C22.2133 72.1193 22.3355 72.5358 22.5745 72.81C22.8189 73.0842 23.1377 73.2213 23.5255 73.2213C23.8496 73.2213 24.1047 73.1369 24.3065 72.9629C24.5084 72.7942 24.6466 72.5358 24.7316 72.1878L25.2735 72.3196V72.3355Z" stroke="white" stroke-width="0.42"></path><path d="M27.2233 69.546C27.5102 69.546 27.7599 69.6462 27.9672 69.8519C28.1744 70.0575 28.2806 70.3 28.2806 70.59C28.2806 70.88 28.1744 71.1226 27.9725 71.3229C27.7653 71.5286 27.5209 71.6287 27.2287 71.6287C26.9364 71.6287 26.6867 71.5286 26.4848 71.3229C26.2776 71.1173 26.1714 70.8747 26.1714 70.5848C26.1714 70.2948 26.2776 70.0522 26.4848 69.8466C26.6921 69.641 26.9364 69.5408 27.2287 69.5408L27.2233 69.546ZM27.2233 71.46C27.4624 71.46 27.6696 71.3757 27.845 71.2069C28.015 71.0382 28.1053 70.8326 28.1053 70.59C28.1053 70.3475 28.0203 70.1471 27.845 69.9784C27.6749 69.8097 27.4677 69.7253 27.2233 69.72C26.979 69.72 26.7771 69.8044 26.6017 69.9731C26.4317 70.1419 26.3467 70.3475 26.3414 70.59C26.3414 70.8273 26.4264 71.0329 26.5964 71.2017C26.7664 71.3704 26.9736 71.46 27.218 71.46H27.2233ZM27.7121 71.1647H27.489C27.3509 70.9117 27.2552 70.7693 27.2127 70.7377C27.1702 70.706 27.1171 70.6902 27.0533 70.6902H26.9418V71.1647H26.7611V70.0417H27.1543C27.2712 70.0417 27.3615 70.0522 27.4252 70.068C27.489 70.0839 27.5421 70.1208 27.5793 70.1735C27.6165 70.2262 27.6378 70.2842 27.6378 70.3475C27.6378 70.4213 27.6112 70.4951 27.5527 70.5531C27.4996 70.6164 27.4146 70.6533 27.3137 70.6586C27.3827 70.6797 27.4677 70.7746 27.5793 70.9433L27.7174 71.1595L27.7121 71.1647ZM26.9471 70.532H27.1702C27.2712 70.532 27.3455 70.5162 27.3827 70.4898C27.4199 70.4582 27.4412 70.416 27.4412 70.3633C27.4412 70.3106 27.4252 70.2684 27.3827 70.242C27.3455 70.2104 27.2658 70.1999 27.1543 70.1999H26.9471V70.5373V70.532Z" fill="white"></path><path d="M27.2233 69.5461C27.5102 69.5461 27.7599 69.6463 27.9671 69.852C28.1743 70.0576 28.2752 70.3001 28.2752 70.5901C28.2752 70.8801 28.1743 71.1227 27.9671 71.323C27.7599 71.5287 27.5155 71.6288 27.2233 71.6288C26.9311 71.6288 26.6814 71.5287 26.4795 71.323C26.2723 71.1174 26.166 70.8748 26.166 70.5849C26.166 70.2949 26.2723 70.0523 26.4795 69.852C26.6867 69.6463 26.9364 69.5461 27.2233 69.5461ZM27.2233 71.4601C27.4624 71.4601 27.6696 71.3758 27.8449 71.207C28.0149 71.0383 28.1052 70.8274 28.1052 70.5901C28.1052 70.3476 28.0202 70.1472 27.8449 69.9785C27.6749 69.8098 27.4677 69.7254 27.2233 69.7201C26.9789 69.7201 26.777 69.8045 26.6017 69.9732C26.4317 70.142 26.3467 70.3476 26.3413 70.5901C26.3413 70.8274 26.4263 71.033 26.5964 71.2018C26.7664 71.3705 26.9736 71.4601 27.218 71.4601H27.2233ZM27.7121 71.1648H27.4889C27.3508 70.9118 27.2552 70.7694 27.2127 70.7378C27.1702 70.7061 27.117 70.6903 27.0533 70.6903H26.9417V71.1648H26.7611V70.047H27.1542C27.2711 70.047 27.3614 70.0576 27.4252 70.0734C27.4889 70.0892 27.5421 70.1261 27.5793 70.1789C27.6164 70.2316 27.6377 70.2896 27.6377 70.3529C27.6377 70.4267 27.6111 70.5005 27.5527 70.5585C27.4942 70.6218 27.4146 70.6587 27.3136 70.6639C27.3827 70.685 27.4677 70.7799 27.5793 70.9487L27.7174 71.1648H27.7121ZM26.947 70.5321H27.1702C27.2711 70.5321 27.3455 70.5163 27.3827 70.4899C27.4199 70.4636 27.4411 70.4161 27.4411 70.3634C27.4411 70.3107 27.4252 70.2685 27.3827 70.2421C27.3455 70.2158 27.2658 70.2 27.1542 70.2H26.947V70.5374V70.5321Z" stroke="white" stroke-width="0.21"></path><path d="M34.7518 72.3355C34.6296 72.7889 34.4224 73.1316 34.1248 73.3531C33.8273 73.5798 33.4714 73.6905 33.0516 73.6905C32.3822 73.6905 31.8934 73.4796 31.5853 73.0684C31.2824 72.6571 31.1284 72.1562 31.123 71.5657C31.123 70.9171 31.3037 70.4162 31.6597 70.0471C32.0209 69.6833 32.4832 69.4988 33.0516 69.4988C33.4501 69.4988 33.7901 69.599 34.077 69.7993C34.3586 69.9997 34.5605 70.295 34.6721 70.6799L34.1408 70.8011C34.0505 70.5217 33.9123 70.3055 33.7317 70.1631C33.551 70.0208 33.3226 69.9522 33.0463 69.9522C32.6 69.9522 32.26 70.0946 32.0316 70.3846C31.7978 70.6746 31.6862 71.0648 31.6862 71.5551C31.6862 72.1193 31.8084 72.5358 32.0475 72.81C32.2919 73.0842 32.6107 73.2213 32.9985 73.2213C33.3226 73.2213 33.5776 73.1369 33.7795 72.9629C33.9814 72.7942 34.1195 72.5358 34.2045 72.1931L34.7465 72.3249L34.7518 72.3355Z" fill="white"></path><path d="M34.7518 72.3355C34.6296 72.7889 34.4224 73.1316 34.1248 73.3531C33.8273 73.5798 33.4714 73.6905 33.0516 73.6905C32.3822 73.6905 31.8934 73.4849 31.5853 73.0684C31.2824 72.6518 31.1284 72.1562 31.123 71.5657C31.123 70.9171 31.3037 70.4162 31.6597 70.0471C32.0209 69.6833 32.4832 69.4988 33.0516 69.4988C33.4501 69.4988 33.7901 69.599 34.077 69.7993C34.3586 69.9997 34.5605 70.295 34.6721 70.6799L34.1408 70.8011C34.0505 70.5217 33.9123 70.3055 33.7317 70.1631C33.551 70.0208 33.3226 69.9522 33.0463 69.9522C32.6 69.9522 32.26 70.0946 32.0316 70.3846C31.7978 70.6746 31.6862 71.0648 31.6862 71.5551C31.6862 72.1193 31.8084 72.5358 32.0475 72.81C32.2919 73.0842 32.6107 73.2213 32.9985 73.2213C33.3226 73.2213 33.5776 73.1369 33.7795 72.9629C33.9814 72.7942 34.1195 72.5358 34.2045 72.1878L34.7465 72.3196L34.7518 72.3355Z" stroke="white" stroke-width="0.42"></path><path d="M37.3445 73.622H36.8398V70.4479C36.5901 70.6851 36.25 70.8855 35.8303 71.0489V70.5691C36.4094 70.295 36.8079 69.9522 37.0151 69.5515H37.3445V73.622Z" fill="white"></path><path d="M37.3445 73.622H36.8398V70.4479C36.5901 70.6851 36.25 70.8855 35.8303 71.0489V70.5691C36.4094 70.295 36.8079 69.9522 37.0151 69.5515H37.3445V73.622Z" stroke="white" stroke-width="0.42"></path><path d="M39.5123 71.1857C39.762 71.017 40.0223 70.9326 40.2933 70.9326C40.6333 70.9326 40.9308 71.0486 41.1858 71.2912C41.4408 71.5284 41.5684 71.8501 41.5684 72.2455C41.5684 72.641 41.4408 72.9889 41.1805 73.2684C40.9202 73.5478 40.5855 73.6902 40.1657 73.6902C39.8257 73.6902 39.5282 73.5953 39.2785 73.4055C39.0288 73.2157 38.8853 72.9309 38.8481 72.5566L39.3741 72.5197C39.4166 72.7728 39.5069 72.9679 39.6504 73.0944C39.7885 73.2209 39.9639 73.2842 40.1657 73.2842C40.4208 73.2842 40.628 73.1893 40.7874 72.9995C40.9467 72.8097 41.0264 72.5777 41.0264 72.293C41.0264 72.0082 40.9414 71.7868 40.782 71.6233C40.6227 71.4599 40.4101 71.3755 40.1551 71.3755C39.831 71.3755 39.5866 71.5073 39.4113 71.7657L38.9331 71.7077L39.3316 69.625H41.3612V70.1048H39.7301L39.5123 71.1857Z" fill="white"></path><path d="M39.5123 71.1857C39.762 71.017 40.0223 70.9326 40.2933 70.9326C40.6333 70.9326 40.9308 71.0486 41.1858 71.2912C41.4408 71.5284 41.5684 71.8501 41.5684 72.2455C41.5684 72.641 41.4408 72.9889 41.1805 73.2684C40.9202 73.5478 40.5855 73.6902 40.1657 73.6902C39.8257 73.6902 39.5282 73.5953 39.2785 73.4055C39.0288 73.2157 38.8853 72.9309 38.8481 72.5566L39.3741 72.5197C39.4166 72.7728 39.5069 72.9679 39.6504 73.0944C39.7885 73.2209 39.9639 73.2842 40.1657 73.2842C40.4208 73.2842 40.628 73.1893 40.7874 72.9995C40.9467 72.8097 41.0264 72.5777 41.0264 72.293C41.0264 72.0082 40.9414 71.7815 40.782 71.6233C40.6173 71.4599 40.4101 71.3755 40.1551 71.3755C39.831 71.3755 39.5866 71.5073 39.4113 71.7657L38.9331 71.7077L39.3316 69.625H41.3612V70.1048H39.7301L39.5123 71.1857Z" stroke="white" stroke-width="0.42"></path><path d="M42.7637 71.5339C42.9922 71.1754 43.3216 70.9961 43.7519 70.9961C44.0866 70.9961 44.3735 71.1227 44.6073 71.3652C44.8411 71.6078 44.9579 71.9241 44.9579 72.3037C44.9579 72.6834 44.8411 73.0155 44.6073 73.2845C44.3735 73.5534 44.0654 73.6904 43.6722 73.6904C43.2791 73.6904 42.9443 73.5481 42.6681 73.2581C42.3918 72.9681 42.2537 72.4566 42.2537 71.7237C42.2537 71.0014 42.3759 70.4583 42.6256 70.0945C42.8753 69.7307 43.2419 69.5461 43.72 69.5461C44.0282 69.5461 44.2885 69.6305 44.501 69.7992C44.7135 69.968 44.8411 70.221 44.8889 70.5532L44.3841 70.6007C44.2938 70.1683 44.0601 69.9574 43.6935 69.9574C43.4384 69.9574 43.2153 70.084 43.0293 70.337C42.8434 70.5901 42.7531 70.9856 42.7531 71.5339H42.7637ZM43.6669 73.2792C43.8954 73.2792 44.0866 73.1895 44.2248 73.005C44.3682 72.8205 44.4426 72.599 44.4426 72.3354C44.4426 72.0717 44.3735 71.8556 44.2248 71.6868C44.0813 71.5181 43.89 71.4285 43.6456 71.4285C43.4225 71.4285 43.2312 71.5076 43.0719 71.671C42.9125 71.8292 42.8328 72.0454 42.8328 72.309C42.8328 72.5726 42.9071 72.8046 43.0665 72.9945C43.2206 73.1843 43.4225 73.2792 43.6616 73.2792H43.6669Z" fill="white"></path><path d="M42.7637 71.5339C42.9922 71.1754 43.3216 70.9961 43.7519 70.9961C44.0866 70.9961 44.3735 71.1174 44.6073 71.3652C44.8411 71.6078 44.9579 71.9241 44.9579 72.3037C44.9579 72.6834 44.8411 73.0155 44.6073 73.2845C44.3735 73.5534 44.0654 73.6904 43.6722 73.6904C43.2791 73.6904 42.9443 73.5481 42.6681 73.2581C42.3918 72.9681 42.2537 72.4566 42.2537 71.7237C42.2537 71.0014 42.3759 70.4583 42.6256 70.0945C42.8753 69.7307 43.2419 69.5461 43.72 69.5461C44.0282 69.5461 44.2885 69.6305 44.501 69.7992C44.7135 69.968 44.8411 70.221 44.8889 70.5532L44.3841 70.6007C44.2938 70.1683 44.0601 69.9574 43.6882 69.9574C43.4331 69.9574 43.21 70.084 43.024 70.337C42.8381 70.5901 42.7478 70.9856 42.7478 71.5339H42.7584H42.7637ZM43.6669 73.2845C43.8954 73.2845 44.0866 73.1948 44.2301 73.0103C44.3735 72.8257 44.4479 72.6043 44.4479 72.3406C44.4479 72.077 44.3788 71.8608 44.2301 71.6921C44.0866 71.5234 43.8954 71.4337 43.651 71.4337C43.4278 71.4337 43.2366 71.5128 43.0772 71.6763C42.9178 71.8345 42.8381 72.0506 42.8381 72.3143C42.8381 72.5779 42.9125 72.8152 43.0719 73.005C43.2259 73.1948 43.4278 73.2897 43.6669 73.2897V73.2845Z" stroke="white" stroke-width="0.42"></path><path d="M48.3527 70.0102C47.949 70.4479 47.6036 70.991 47.3061 71.6342C47.0086 72.2775 46.8386 72.9418 46.7854 73.6273H46.2701C46.286 73.0737 46.4188 72.4726 46.6792 71.8135C46.9395 71.1544 47.2795 70.5902 47.6993 70.1104H45.6963V69.6306H48.3527V70.0155V70.0102Z" fill="white"></path><path d="M48.3527 70.0099C47.949 70.4475 47.6036 70.9853 47.3061 71.6286C47.0139 72.2719 46.8386 72.9362 46.7854 73.6217H46.2701C46.286 73.068 46.4188 72.4617 46.6792 71.8079C46.9395 71.1488 47.2795 70.5794 47.6993 70.1048H45.6963V69.625H48.3527V70.0099Z" stroke="white" stroke-width="0.42"></path><path d="M50.4249 69.5515C51.3174 69.5515 51.7637 70.2422 51.7637 71.6237C51.7637 72.3196 51.6468 72.8416 51.4184 73.1791C51.1899 73.5165 50.8605 73.6905 50.4249 73.6905C49.5376 73.6905 49.0913 72.9998 49.0913 71.6237C49.0913 70.9277 49.2082 70.4057 49.4366 70.063C49.6651 69.7255 49.9945 69.5515 50.4249 69.5515ZM50.4249 73.2793C50.6958 73.2793 50.8977 73.1527 51.0358 72.8944C51.174 72.636 51.243 72.2089 51.243 71.6237C51.243 71.2124 51.2112 70.8908 51.1527 70.6588C51.0943 70.4215 50.9986 70.2475 50.8818 70.1315C50.7542 70.0155 50.6055 69.9575 50.4195 69.9575C50.1486 69.9575 49.9467 70.0893 49.8139 70.3529C49.6757 70.6166 49.6067 71.0384 49.6067 71.6237C49.6067 72.0244 49.6385 72.346 49.7023 72.5833C49.7607 72.8206 49.8564 72.9945 49.9786 73.1105C50.1008 73.2265 50.2495 73.2845 50.4302 73.2845L50.4249 73.2793Z" fill="white"></path><path d="M50.4249 69.5515C51.3174 69.5515 51.7637 70.2422 51.7637 71.6237C51.7637 72.3196 51.6468 72.8416 51.4184 73.1791C51.1899 73.5165 50.8605 73.6853 50.4249 73.6905C49.5376 73.6905 49.0913 72.9998 49.0913 71.6237C49.0913 70.9277 49.2082 70.4057 49.4366 70.063C49.6651 69.7255 49.9945 69.5515 50.4249 69.5515ZM50.4249 73.2845C50.6958 73.2845 50.8977 73.158 51.0358 72.8996C51.174 72.6413 51.243 72.2142 51.243 71.6289C51.243 71.2177 51.2112 70.896 51.1527 70.664C51.0943 70.4268 51.004 70.2528 50.8764 70.1368C50.7543 70.0208 50.6002 69.9628 50.4142 69.9628C50.1433 69.9628 49.9414 70.0946 49.8086 70.3582C49.6704 70.6219 49.6013 71.0437 49.6013 71.6289C49.6013 72.0349 49.6332 72.3513 49.697 72.5886C49.7554 72.8258 49.8511 72.9998 49.9733 73.1158C50.0954 73.2265 50.2442 73.2898 50.4249 73.2898V73.2845Z" stroke="white" stroke-width="0.42"></path><path d="M54.4095 71.4286C54.9249 71.592 55.1799 71.9347 55.1799 72.462C55.1799 72.81 55.0524 73.1 54.8027 73.3373C54.553 73.5693 54.2289 73.6853 53.8304 73.6853C53.432 73.6853 53.1079 73.5693 52.8582 73.332C52.6085 73.0947 52.481 72.7995 52.481 72.4462C52.481 72.1931 52.55 71.9664 52.6935 71.7766C52.8316 71.5868 53.0229 71.4708 53.262 71.4286V71.418C52.8529 71.2915 52.6457 71.0173 52.6457 70.5955C52.6457 70.295 52.7519 70.0471 52.9697 69.8521C53.1876 69.6517 53.4692 69.5515 53.8198 69.5515C54.1705 69.5515 54.4627 69.6517 54.6805 69.8626C54.8983 70.0682 55.0099 70.316 55.0099 70.6113C55.0099 71.0068 54.808 71.2809 54.4095 71.4233V71.4338V71.4286ZM53.8304 71.2335C54.0217 71.2335 54.1758 71.1755 54.3033 71.0542C54.4308 70.9382 54.4946 70.7853 54.4946 70.606C54.4946 70.4215 54.4308 70.2686 54.3033 70.142C54.1758 70.0208 54.0164 69.9575 53.8251 69.9575C53.6339 69.9575 53.4745 70.0208 53.3523 70.142C53.2248 70.2633 53.161 70.411 53.161 70.5797C53.161 70.78 53.2248 70.9382 53.3523 71.0542C53.4798 71.1702 53.6392 71.2282 53.8251 71.2335H53.8304ZM53.8304 73.2793C54.0695 73.2793 54.2661 73.2055 54.4255 73.0525C54.5849 72.8996 54.6646 72.7045 54.6646 72.462C54.6646 72.2195 54.5849 72.0244 54.4202 71.8662C54.2608 71.7133 54.0589 71.6342 53.8251 71.6342C53.5914 71.6342 53.3842 71.7133 53.2301 71.8715C53.076 72.0297 53.0016 72.2195 53.0016 72.4462C53.0016 72.6729 53.0813 72.8786 53.2354 73.0367C53.3895 73.1949 53.5914 73.274 53.8358 73.274L53.8304 73.2793Z" fill="white"></path><path d="M54.4095 71.4286C54.9249 71.592 55.1799 71.94 55.1799 72.462C55.1799 72.81 55.0524 73.1053 54.8027 73.3373C54.553 73.5693 54.2289 73.6853 53.8304 73.6853C53.432 73.6853 53.1079 73.5693 52.8582 73.332C52.6085 73.0947 52.481 72.7995 52.481 72.4462C52.481 72.1931 52.55 71.9664 52.6935 71.7766C52.8316 71.5868 53.0229 71.4708 53.262 71.4286V71.418C52.8529 71.2915 52.6457 71.0173 52.6457 70.5955C52.6457 70.295 52.7519 70.0471 52.9697 69.8521C53.1876 69.6517 53.4692 69.5515 53.8198 69.5515C54.1705 69.5515 54.4627 69.657 54.6805 69.8626C54.8983 70.0682 55.0099 70.316 55.0099 70.6113C55.0099 71.0068 54.808 71.2809 54.4095 71.4233V71.4338V71.4286ZM53.8304 71.2335C54.0217 71.2335 54.1758 71.1755 54.3033 71.0542C54.4308 70.9382 54.4946 70.7853 54.4946 70.606C54.4946 70.4215 54.4308 70.2686 54.3033 70.142C54.1758 70.0208 54.0164 69.9522 53.8251 69.9522C53.6339 69.9522 53.4745 70.0155 53.3523 70.1368C53.2248 70.2633 53.161 70.4057 53.161 70.5744C53.161 70.7748 53.2248 70.9329 53.3523 71.0489C53.4798 71.1649 53.6392 71.2229 53.8251 71.2282L53.8304 71.2335ZM53.8304 73.2845C54.0695 73.2845 54.2661 73.2107 54.4255 73.0578C54.5849 72.9049 54.6646 72.7098 54.6646 72.4673C54.6646 72.2247 54.5849 72.0297 54.4202 71.8768C54.2555 71.7238 54.0589 71.6448 53.8251 71.6448C53.5914 71.6448 53.3842 71.7238 53.2301 71.882C53.076 72.0402 53.0016 72.23 53.0016 72.4567C53.0016 72.6835 53.0813 72.8891 53.2354 73.0473C53.3895 73.2054 53.5914 73.2845 53.8358 73.2845H53.8304Z" stroke="white" stroke-width="0.42"></path></g><defs><clipPath id="clip0_8159_3171"><rect width="68" height="79" fill="white"></rect></clipPath></defs></svg> 