<svg width="121" height="40" viewBox="0 0 121 40" fill="none" xmlns="http://www.w3.org/2000/svg">
<path d="M7.70005 -2.74181e-06L14.4 12.25L21.2001 -2.74181e-06H28.65L17.65 18.5V31.5H10.8V18.5L4.88553e-05 -2.74181e-06H7.70005ZM32.2458 -2.74181e-06H39.0958V18.85C39.0958 21.45 39.6124 23.4333 40.6458 24.8C41.7124 26.1333 43.3458 26.8 45.5458 26.8C47.7124 26.8 49.2791 26.1167 50.2458 24.75C51.2124 23.3833 51.6958 21.6167 51.6958 19.45V-2.74181e-06H58.5458V18.95C58.5458 23.35 57.4458 26.6333 55.2458 28.8C53.0791 30.9667 49.8458 32.05 45.5458 32.05C41.4124 32.05 38.1624 30.9667 35.7958 28.8C33.4291 26.6333 32.2458 23.2667 32.2458 18.7V-2.74181e-06ZM73.1024 -2.74181e-06V25.75C73.1024 27.05 73.0691 28.2333 73.0024 29.3C72.9357 30.3333 72.8024 31.2833 72.6024 32.15C72.4024 33.0167 72.1191 33.8 71.7524 34.5C71.4191 35.2 70.9857 35.8667 70.4524 36.5C69.3524 37.8 67.9691 38.7 66.3024 39.2C64.6357 39.7333 62.8691 40 61.0024 40V34.75C61.8691 34.75 62.6191 34.6167 63.2524 34.35C63.8857 34.0833 64.4024 33.75 64.8024 33.35C65.4024 32.8167 65.7857 32.1167 65.9524 31.25C66.1524 30.3833 66.2524 29.4167 66.2524 28.35V-2.74181e-06H73.1024ZM86.8032 -2.74181e-06V31.5H79.9532V-2.74181e-06H86.8032ZM93.7715 -2.74181e-06H100.022L110.872 16.6C111.605 17.7333 112.272 18.85 112.872 19.95C113.505 21.0167 113.955 21.85 114.222 22.45H114.322C114.122 20.2833 114.022 18.1333 114.022 16C114.022 13.8333 114.022 11.65 114.022 9.45V-2.74181e-06H120.372V31.5H114.122L104.022 16.2C103.588 15.5333 103.155 14.85 102.722 14.15C102.322 13.4167 101.938 12.7167 101.572 12.05C101.205 11.3833 100.872 10.7833 100.572 10.25C100.305 9.68333 100.105 9.21667 99.9715 8.85H99.8715C100.038 11.15 100.122 13.3667 100.122 15.5C100.155 17.6 100.172 19.75 100.172 21.95V31.5H93.7715V-2.74181e-06Z" fill="white"/>
</svg>
