<svg width="421" height="47" viewBox="0 0 421 47" fill="none" xmlns="http://www.w3.org/2000/svg">
<path d="M7.70005 6.3999L14.4 18.6499L21.2001 6.3999H28.65L17.65 24.8999V37.8999H10.8V24.8999L4.88553e-05 6.3999H7.70005ZM32.2458 6.3999H39.0958V25.2499C39.0958 27.8499 39.6124 29.8332 40.6458 31.1999C41.7124 32.5332 43.3458 33.1999 45.5458 33.1999C47.7124 33.1999 49.2791 32.5166 50.2458 31.1499C51.2124 29.7832 51.6958 28.0166 51.6958 25.8499V6.3999H58.5458V25.3499C58.5458 29.7499 57.4458 33.0332 55.2458 35.1999C53.0791 37.3666 49.8458 38.4499 45.5458 38.4499C41.4124 38.4499 38.1624 37.3666 35.7958 35.1999C33.4291 33.0332 32.2458 29.6666 32.2458 25.0999V6.3999ZM73.1024 6.3999V32.1499C73.1024 33.4499 73.0691 34.6332 73.0024 35.6999C72.9357 36.7332 72.8024 37.6832 72.6024 38.5499C72.4024 39.4166 72.1191 40.1999 71.7524 40.8999C71.4191 41.5999 70.9857 42.2666 70.4524 42.8999C69.3524 44.1999 67.9691 45.0999 66.3024 45.5999C64.6357 46.1332 62.8691 46.3999 61.0024 46.3999V41.1499C61.8691 41.1499 62.6191 41.0166 63.2524 40.7499C63.8857 40.4832 64.4024 40.1499 64.8024 39.7499C65.4024 39.2166 65.7857 38.5166 65.9524 37.6499C66.1524 36.7832 66.2524 35.8166 66.2524 34.7499V6.3999H73.1024ZM86.8032 6.3999V37.8999H79.9532V6.3999H86.8032ZM93.7715 6.3999H100.022L110.872 22.9999C111.605 24.1332 112.272 25.2499 112.872 26.3499C113.505 27.4166 113.955 28.2499 114.222 28.8499H114.322C114.122 26.6832 114.022 24.5332 114.022 22.3999C114.022 20.2332 114.022 18.0499 114.022 15.8499V6.3999H120.372V37.8999H114.122L104.022 22.5999C103.588 21.9332 103.155 21.2499 102.722 20.5499C102.322 19.8166 101.938 19.1166 101.572 18.4499C101.205 17.7832 100.872 17.1832 100.572 16.6499C100.305 16.0832 100.105 15.6166 99.9715 15.2499H99.8715C100.038 17.5499 100.122 19.7666 100.122 21.8999C100.155 23.9999 100.172 26.1499 100.172 28.3499V37.8999H93.7715V6.3999ZM129.118 8.1499C128.018 7.91657 127.168 7.43323 126.568 6.6999C125.968 5.93323 125.668 5.01657 125.668 3.9499C125.668 2.88323 126.018 1.96657 126.718 1.1999C127.418 0.399901 128.418 -9.84669e-05 129.718 -9.84669e-05C130.218 -9.84669e-05 130.718 0.0999012 131.218 0.299901C131.751 0.4999 132.234 0.849901 132.668 1.3499C133.101 1.81657 133.451 2.43324 133.718 3.1999C133.984 3.93323 134.118 4.8499 134.118 5.9499C134.118 7.11657 133.934 8.23323 133.568 9.2999C133.201 10.3332 132.701 11.2999 132.068 12.1999C131.434 13.0666 130.718 13.8666 129.918 14.5999C129.118 15.2999 128.301 15.8666 127.468 16.2999L125.568 13.6999C126.568 13.1332 127.468 12.3832 128.268 11.4499C129.101 10.5166 129.634 9.46657 129.868 8.2999L129.118 8.1499ZM148.893 5.8499C150.927 5.8499 152.727 6.0499 154.293 6.4499C155.86 6.8499 157.26 7.36657 158.493 7.9999L156.943 13.0999C155.577 12.4332 154.26 11.9332 152.993 11.5999C151.727 11.2332 150.493 11.0499 149.293 11.0499C147.693 11.0499 146.443 11.3666 145.543 11.9999C144.677 12.6332 144.243 13.4832 144.243 14.5499C144.243 15.6499 144.627 16.4832 145.393 17.0499C146.16 17.6166 147.393 18.1666 149.093 18.6999L152.093 19.6499C154.593 20.4832 156.543 21.6666 157.943 23.1999C159.377 24.7332 160.093 26.6166 160.093 28.8499C160.093 30.1832 159.843 31.4332 159.343 32.5999C158.843 33.7666 158.093 34.7832 157.093 35.6499C156.093 36.5166 154.843 37.1999 153.343 37.6999C151.843 38.1999 150.093 38.4499 148.093 38.4499C144.327 38.4499 140.877 37.6832 137.743 36.1499L139.293 31.0499C140.727 31.7499 142.127 32.2999 143.493 32.6999C144.86 33.0666 146.293 33.2499 147.793 33.2499C149.56 33.2499 150.893 32.9332 151.793 32.2999C152.693 31.6332 153.143 30.7166 153.143 29.5499C153.143 29.1499 153.06 28.7666 152.893 28.3999C152.76 27.9999 152.493 27.6332 152.093 27.2999C151.693 26.9332 151.143 26.5832 150.443 26.2499C149.777 25.8832 148.893 25.5332 147.793 25.1999L145.143 24.2999C143.977 23.8999 142.91 23.4332 141.943 22.8999C140.977 22.3666 140.143 21.7499 139.443 21.0499C138.777 20.3499 138.243 19.5332 137.843 18.5999C137.477 17.6332 137.293 16.5166 137.293 15.2499C137.293 13.8832 137.543 12.6332 138.043 11.4999C138.543 10.3332 139.277 9.33323 140.243 8.4999C141.243 7.66657 142.46 7.01657 143.893 6.5499C145.36 6.08323 147.027 5.8499 148.893 5.8499ZM177.023 6.3999H188.073C189.907 6.3999 191.557 6.61657 193.023 7.0499C194.523 7.48323 195.79 8.11657 196.823 8.9499C197.89 9.78323 198.707 10.7999 199.273 11.9999C199.84 13.1666 200.123 14.5166 200.123 16.0499C200.123 17.8499 199.79 19.3999 199.123 20.6999C198.457 21.9999 197.54 23.0832 196.373 23.9499C195.24 24.7832 193.907 25.4166 192.373 25.8499C190.84 26.2499 189.207 26.4499 187.473 26.4499H183.873V37.8999H177.023V6.3999ZM183.873 21.1999H186.673C187.54 21.1999 188.357 21.1332 189.123 20.9999C189.923 20.8332 190.607 20.5666 191.173 20.1999C191.773 19.7999 192.24 19.2999 192.573 18.6999C192.907 18.0666 193.073 17.2832 193.073 16.3499C193.073 14.7166 192.523 13.5166 191.423 12.7499C190.323 11.9832 188.923 11.5999 187.223 11.5999H183.873V21.1999ZM219.252 5.8499C221.485 5.8499 223.552 6.21657 225.452 6.9499C227.352 7.68324 228.985 8.7499 230.352 10.1499C231.719 11.5166 232.785 13.2166 233.552 15.2499C234.352 17.2832 234.752 19.5999 234.752 22.1999C234.752 24.7332 234.352 26.9999 233.552 28.9999C232.752 30.9999 231.652 32.6999 230.252 34.0999C228.852 35.4999 227.185 36.5832 225.252 37.3499C223.352 38.0832 221.285 38.4499 219.052 38.4499C216.819 38.4499 214.752 38.0999 212.852 37.3999C210.952 36.6666 209.319 35.6166 207.952 34.2499C206.585 32.8499 205.502 31.1499 204.702 29.1499C203.935 27.1166 203.552 24.7999 203.552 22.1999C203.552 19.6666 203.952 17.3999 204.752 15.3999C205.552 13.3666 206.652 11.6499 208.052 10.2499C209.452 8.81657 211.102 7.73323 213.002 6.9999C214.935 6.23323 217.019 5.8499 219.252 5.8499ZM210.802 22.1999C210.802 24.0666 211.019 25.6999 211.452 27.0999C211.919 28.4666 212.535 29.6166 213.302 30.5499C214.069 31.4499 214.952 32.1332 215.952 32.5999C216.985 33.0332 218.085 33.2499 219.252 33.2499C220.385 33.2499 221.452 33.0332 222.452 32.5999C223.485 32.1332 224.369 31.4499 225.102 30.5499C225.835 29.6166 226.419 28.4666 226.852 27.0999C227.285 25.6999 227.502 24.0666 227.502 22.1999C227.502 20.2666 227.269 18.5999 226.802 17.1999C226.369 15.7999 225.769 14.6499 225.002 13.7499C224.235 12.8166 223.335 12.1332 222.302 11.6999C221.302 11.2666 220.219 11.0499 219.052 11.0499C217.885 11.0499 216.802 11.2832 215.802 11.7499C214.802 12.2166 213.935 12.9166 213.202 13.8499C212.469 14.7499 211.885 15.8999 211.452 17.2999C211.019 18.6999 210.802 20.3332 210.802 22.1999ZM240.207 6.3999H252.157C253.924 6.3999 255.474 6.66657 256.807 7.1999C258.174 7.6999 259.307 8.3999 260.207 9.2999C261.107 10.1666 261.774 11.1999 262.207 12.3999C262.674 13.5666 262.907 14.8332 262.907 16.1999C262.907 17.4666 262.707 18.5999 262.307 19.5999C261.94 20.5666 261.457 21.4166 260.857 22.1499C260.29 22.8499 259.64 23.4499 258.907 23.9499C258.207 24.4166 257.524 24.7999 256.857 25.0999L264.557 37.8999H256.707L250.657 26.2999H247.007V37.8999H240.207V6.3999ZM247.007 21.0499H249.707C251.507 21.0499 252.974 20.6832 254.107 19.9499C255.274 19.2166 255.857 17.9999 255.857 16.2999C255.857 14.7999 255.39 13.6499 254.457 12.8499C253.557 12.0166 252.224 11.5999 250.457 11.5999H247.007V21.0499ZM290.027 6.3999V11.7999H281.127V37.8999H274.277V11.7999H265.577V6.3999H290.027ZM313.918 6.3999V11.6999H300.768V20.0499H312.818V25.2999H300.768V37.8999H293.918V6.3999H313.918ZM332.777 5.8499C335.011 5.8499 337.077 6.21657 338.977 6.9499C340.877 7.68324 342.511 8.7499 343.877 10.1499C345.244 11.5166 346.311 13.2166 347.077 15.2499C347.877 17.2832 348.277 19.5999 348.277 22.1999C348.277 24.7332 347.877 26.9999 347.077 28.9999C346.277 30.9999 345.177 32.6999 343.777 34.0999C342.377 35.4999 340.711 36.5832 338.777 37.3499C336.877 38.0832 334.811 38.4499 332.577 38.4499C330.344 38.4499 328.277 38.0999 326.377 37.3999C324.477 36.6666 322.844 35.6166 321.477 34.2499C320.111 32.8499 319.027 31.1499 318.227 29.1499C317.461 27.1166 317.077 24.7999 317.077 22.1999C317.077 19.6666 317.477 17.3999 318.277 15.3999C319.077 13.3666 320.177 11.6499 321.577 10.2499C322.977 8.81657 324.627 7.73323 326.527 6.9999C328.461 6.23323 330.544 5.8499 332.777 5.8499ZM324.327 22.1999C324.327 24.0666 324.544 25.6999 324.977 27.0999C325.444 28.4666 326.061 29.6166 326.827 30.5499C327.594 31.4499 328.477 32.1332 329.477 32.5999C330.511 33.0332 331.611 33.2499 332.777 33.2499C333.911 33.2499 334.977 33.0332 335.977 32.5999C337.011 32.1332 337.894 31.4499 338.627 30.5499C339.361 29.6166 339.944 28.4666 340.377 27.0999C340.811 25.6999 341.027 24.0666 341.027 22.1999C341.027 20.2666 340.794 18.5999 340.327 17.1999C339.894 15.7999 339.294 14.6499 338.527 13.7499C337.761 12.8166 336.861 12.1332 335.827 11.6999C334.827 11.2666 333.744 11.0499 332.577 11.0499C331.411 11.0499 330.327 11.2832 329.327 11.7499C328.327 12.2166 327.461 12.9166 326.727 13.8499C325.994 14.7499 325.411 15.8999 324.977 17.2999C324.544 18.6999 324.327 20.3332 324.327 22.1999ZM353.732 6.3999H360.582V32.4999H373.282V37.8999H353.732V6.3999ZM383.971 6.3999V37.8999H377.121V6.3999H383.971ZM405.19 5.8499C407.423 5.8499 409.49 6.21657 411.39 6.9499C413.29 7.68324 414.923 8.7499 416.29 10.1499C417.656 11.5166 418.723 13.2166 419.49 15.2499C420.29 17.2832 420.69 19.5999 420.69 22.1999C420.69 24.7332 420.29 26.9999 419.49 28.9999C418.69 30.9999 417.59 32.6999 416.19 34.0999C414.79 35.4999 413.123 36.5832 411.19 37.3499C409.29 38.0832 407.223 38.4499 404.99 38.4499C402.756 38.4499 400.69 38.0999 398.79 37.3999C396.89 36.6666 395.256 35.6166 393.89 34.2499C392.523 32.8499 391.44 31.1499 390.64 29.1499C389.873 27.1166 389.49 24.7999 389.49 22.1999C389.49 19.6666 389.89 17.3999 390.69 15.3999C391.49 13.3666 392.59 11.6499 393.99 10.2499C395.39 8.81657 397.04 7.73323 398.94 6.9999C400.873 6.23323 402.956 5.8499 405.19 5.8499ZM396.74 22.1999C396.74 24.0666 396.956 25.6999 397.39 27.0999C397.856 28.4666 398.473 29.6166 399.24 30.5499C400.006 31.4499 400.89 32.1332 401.89 32.5999C402.923 33.0332 404.023 33.2499 405.19 33.2499C406.323 33.2499 407.39 33.0332 408.39 32.5999C409.423 32.1332 410.306 31.4499 411.04 30.5499C411.773 29.6166 412.356 28.4666 412.79 27.0999C413.223 25.6999 413.44 24.0666 413.44 22.1999C413.44 20.2666 413.206 18.5999 412.74 17.1999C412.306 15.7999 411.706 14.6499 410.94 13.7499C410.173 12.8166 409.273 12.1332 408.24 11.6999C407.24 11.2666 406.156 11.0499 404.99 11.0499C403.823 11.0499 402.74 11.2832 401.74 11.7499C400.74 12.2166 399.873 12.9166 399.14 13.8499C398.406 14.7499 397.823 15.8999 397.39 17.2999C396.956 18.6999 396.74 20.3332 396.74 22.1999Z" fill="white"/>
</svg>
